<svg width="2119" height="573" viewBox="0 0 2119 573" fill="none" xmlns="http://www.w3.org/2000/svg">
<path d="M2055.76 555.84C2049.82 437.757 1940.41 429.574 1926.48 363.317C1911.52 292.236 1832.32 234.777 1731.99 249.535C1731.7 249.578 1731.4 249.62 1731.12 249.67C1692.33 255.572 1654.35 237.05 1645.25 207.761C1618.52 121.686 1538.59 41.2686 1427.18 26.5523C1287.43 8.08124 1200.33 100.336 1174.49 223.159C1150.39 337.656 953.246 353.467 953.246 555.84H1619.01C1619.18 550.2 1619.48 544.542 1619.87 538.86C1620.42 544.551 1620.8 550.217 1620.97 555.84H2055.76Z" fill="#F2F3F8"/>
<path d="M1382.69 394.332H1310.06V555.832H1382.69V394.332Z" fill="#C3D0F2"/>
<path d="M1496.26 165.667H1382.68V555.832H1496.26V165.667Z" fill="#C3D0F2"/>
<path d="M1468.36 146.615H1422.04V165.666H1468.36V146.615Z" fill="#C3D0F2"/>
<path d="M1213.97 368.924H1205.23V555.832H1213.97V368.924Z" fill="#C3D0F2"/>
<path d="M1248.92 343.524H1240.18V555.841H1248.92V343.524Z" fill="#C3D0F2"/>
<path d="M1283.86 343.524H1275.12V555.841H1283.86V343.524Z" fill="#C3D0F2"/>
<path d="M1318.81 343.524H1310.06V555.841H1318.81V343.524Z" fill="#C3D0F2"/>
<path d="M1318.8 546.782H1205.23V550.284H1318.8V546.782Z" fill="#C3D0F2"/>
<path d="M1318.8 521.374H1205.23V524.876H1318.8V521.374Z" fill="#C3D0F2"/>
<path d="M1318.8 495.965H1205.23V499.468H1318.8V495.965Z" fill="#C3D0F2"/>
<path d="M1318.8 470.557H1205.23V474.059H1318.8V470.557Z" fill="#C3D0F2"/>
<path d="M1318.8 445.149H1205.23V448.651H1318.8V445.149Z" fill="#C3D0F2"/>
<path d="M1318.8 419.74H1205.23V423.243H1318.8V419.74Z" fill="#C3D0F2"/>
<path d="M1318.8 394.332H1205.23V397.835H1318.8V394.332Z" fill="#C3D0F2"/>
<path d="M1318.81 368.924H1240.17V372.426H1318.81V368.924Z" fill="#C3D0F2"/>
<path d="M1318.8 419.74H1275.12V555.832H1318.8V419.74Z" fill="#C3D0F2"/>
<path d="M1248.91 262.568H1135.34V555.841H1248.91V262.568Z" fill="#C3D0F2"/>
<path d="M1221.02 243.508H1174.69V262.559H1221.02V243.508Z" fill="#C3D0F2"/>
<path d="M1039.25 445.401H1030.51V555.832H1039.25V445.401Z" fill="#C3D0F2"/>
<path d="M1074.19 419.993H1065.45V555.832H1074.19V419.993Z" fill="#C3D0F2"/>
<path d="M1109.14 419.993H1100.4V555.832H1109.14V419.993Z" fill="#C3D0F2"/>
<path d="M1144.08 419.993H1135.34V555.832H1144.08V419.993Z" fill="#C3D0F2"/>
<path d="M1144.08 547.034H1030.51V550.537H1144.08V547.034Z" fill="#C3D0F2"/>
<path d="M1144.08 521.626H1030.51V525.128H1144.08V521.626Z" fill="#C3D0F2"/>
<path d="M1144.08 496.218H1030.51V499.72H1144.08V496.218Z" fill="#C3D0F2"/>
<path d="M1144.08 470.81H1030.51V474.312H1144.08V470.81Z" fill="#C3D0F2"/>
<path d="M1144.08 445.401H1065.45V448.903H1144.08V445.401Z" fill="#C3D0F2"/>
<path d="M1144.08 496.218H1100.4V555.84H1144.08V496.218Z" fill="#C3D0F2"/>
<path d="M1641.79 343.524H1583.36V555.841H1641.79V343.524Z" fill="#C3D0F2"/>
<path d="M1641.8 318.116H1636.49V555.841H1641.8V318.116Z" fill="#C3D0F2"/>
<path d="M1664.96 318.116H1659.64V555.841H1664.96V318.116Z" fill="#C3D0F2"/>
<path d="M1688.12 318.116H1682.8V555.841H1688.12V318.116Z" fill="#C3D0F2"/>
<path d="M1711.28 343.524H1705.96V555.841H1711.28V343.524Z" fill="#C3D0F2"/>
<path d="M1670.75 318.116H1664.96V555.841H1670.75V318.116Z" fill="#788ACC"/>
<path d="M1693.91 318.116H1688.12V555.841H1693.91V318.116Z" fill="#788ACC"/>
<path d="M1717.07 343.524H1711.28V555.841H1717.07V343.524Z" fill="#788ACC"/>
<path d="M1693.91 419.741H1664.96V555.832H1693.91V419.741Z" fill="#788ACC"/>
<path d="M1711.28 516.12H1693.91V521.374H1711.28V516.12Z" fill="#788ACC"/>
<path d="M1711.28 541.528H1693.91V555.832H1711.28V541.528Z" fill="#788ACC"/>
<path d="M1711.28 490.712H1693.91V495.966H1711.28V490.712Z" fill="#788ACC"/>
<path d="M1711.28 465.304H1693.91V470.557H1711.28V465.304Z" fill="#788ACC"/>
<path d="M1647.59 318.116H1641.79V555.841H1647.59V318.116Z" fill="#788ACC"/>
<path d="M1717.07 546.782H1641.79V550.284H1717.07V546.782Z" fill="#788ACC"/>
<path d="M1717.07 521.374H1641.79V524.876H1717.07V521.374Z" fill="#788ACC"/>
<path d="M1717.07 495.965H1641.79V499.468H1717.07V495.965Z" fill="#788ACC"/>
<path d="M1717.07 470.557H1641.79V474.06H1717.07V470.557Z" fill="#788ACC"/>
<path d="M1717.07 445.149H1641.79V448.651H1717.07V445.149Z" fill="#788ACC"/>
<path d="M1717.07 419.741H1641.79V423.243H1717.07V419.741Z" fill="#788ACC"/>
<path d="M1717.07 394.332H1641.79V397.835H1717.07V394.332Z" fill="#788ACC"/>
<path d="M1717.07 368.924H1641.79V372.427H1717.07V368.924Z" fill="#788ACC"/>
<path d="M1693.91 343.524H1641.79V347.027H1693.91V343.524Z" fill="#788ACC"/>
<path d="M1670.75 343.524H1641.79V555.841H1670.75V343.524Z" fill="#788ACC"/>
<path d="M1683.01 474.059H1675.87V490.72H1683.01V474.059Z" fill="#F2F3F8"/>
<path d="M1683.01 499.468H1675.87V516.129H1683.01V499.468Z" fill="#F2F3F8"/>
<path d="M1683.01 524.867H1675.87V541.528H1683.01V524.867Z" fill="#F2F3F8"/>
<path d="M1683.01 448.651H1675.87V465.312H1683.01V448.651Z" fill="#F2F3F8"/>
<path d="M1683.01 423.243H1675.87V439.904H1683.01V423.243Z" fill="#F2F3F8"/>
<path d="M1683 474.059H1679.43V490.72H1683V474.059Z" fill="#C3D0F2"/>
<path d="M1683 499.468H1679.43V516.129H1683V499.468Z" fill="#C3D0F2"/>
<path d="M1683 524.867H1679.43V541.528H1683V524.867Z" fill="#C3D0F2"/>
<path d="M1683 448.651H1679.43V465.312H1683V448.651Z" fill="#C3D0F2"/>
<path d="M1683 423.243H1679.43V439.904H1683V423.243Z" fill="#C3D0F2"/>
<path d="M1531.24 241.891H1461.35V555.841H1531.24V241.891Z" fill="#5B5F99"/>
<path d="M1531.24 555.838H1577.56V241.888H1531.24V555.838Z" fill="#50517D"/>
<path d="M1426.41 241.891H1417.67V555.841H1426.41V241.891Z" fill="white"/>
<path d="M1461.35 241.891H1452.61V555.841H1461.35V241.891Z" fill="white"/>
<path d="M1496.3 241.891H1487.56V555.841H1496.3V241.891Z" fill="white"/>
<path d="M1531.24 241.891H1522.5V555.841H1531.24V241.891Z" fill="white"/>
<path d="M1431.73 241.891H1426.41V555.841H1431.73V241.891Z" fill="#788ACC"/>
<path d="M1466.67 241.891H1461.35V555.841H1466.67V241.891Z" fill="#788ACC"/>
<path d="M1501.62 241.891H1496.3V555.841H1501.62V241.891Z" fill="#788ACC"/>
<path d="M1531.24 546.782H1417.67V550.284H1531.24V546.782Z" fill="white"/>
<path d="M1531.24 521.374H1417.67V524.876H1531.24V521.374Z" fill="white"/>
<path d="M1531.24 495.966H1417.67V499.468H1531.24V495.966Z" fill="white"/>
<path d="M1531.24 470.557H1417.67V474.059H1531.24V470.557Z" fill="white"/>
<path d="M1531.24 445.149H1417.67V448.651H1531.24V445.149Z" fill="white"/>
<path d="M1531.24 419.741H1417.67V423.243H1531.24V419.741Z" fill="white"/>
<path d="M1531.24 394.332H1417.67V397.835H1531.24V394.332Z" fill="white"/>
<path d="M1531.24 368.924H1417.67V372.426H1531.24V368.924Z" fill="white"/>
<path d="M1531.24 343.524H1417.67V347.027H1531.24V343.524Z" fill="white"/>
<path d="M1531.24 318.116H1417.67V321.618H1531.24V318.116Z" fill="white"/>
<path d="M1531.24 292.708H1417.67V296.21H1531.24V292.708Z" fill="white"/>
<path d="M1531.24 267.3H1417.67V270.802H1531.24V267.3Z" fill="white"/>
<path d="M1531.24 241.891H1417.67V245.394H1531.24V241.891Z" fill="white"/>
<path d="M1531.24 191.075H1461.35V241.891H1531.24V191.075Z" fill="white"/>
<path d="M1426.41 216.483H1416.17V241.891H1426.41V216.483Z" fill="#FFC338"/>
<path d="M1433.22 216.483H1426.41V241.891H1433.22V216.483Z" fill="#C27B1B"/>
<path d="M1461.35 216.483H1451.11V241.891H1461.35V216.483Z" fill="#FFC338"/>
<path d="M1468.16 216.483H1461.35V241.891H1468.16V216.483Z" fill="#C27B1B"/>
<path d="M1496.3 216.483H1486.06V241.891H1496.3V216.483Z" fill="#FFC338"/>
<path d="M1503.11 216.483H1496.3V241.891H1503.11V216.483Z" fill="#C27B1B"/>
<path d="M1531.24 216.483H1521V241.891H1531.24V216.483Z" fill="#FFC338"/>
<path d="M1606.52 241.891H1600.72V555.841H1606.52V241.891Z" fill="#788ACC"/>
<path d="M1583.36 241.891H1577.56V555.841H1583.36V241.891Z" fill="#788ACC"/>
<path d="M1560.2 241.891H1554.4V555.841H1560.2V241.891Z" fill="#788ACC"/>
<path d="M1537.04 241.891H1531.24V555.841H1537.04V241.891Z" fill="#788ACC"/>
<path d="M1600.73 241.891H1595.41V555.841H1600.73V241.891Z" fill="#C3D0F2"/>
<path d="M1577.56 241.891H1572.25V555.841H1577.56V241.891Z" fill="#C3D0F2"/>
<path d="M1554.4 241.891H1549.09V555.841H1554.4V241.891Z" fill="#C3D0F2"/>
<path d="M1531.24 241.894H1577.56V191.077H1531.24V241.894Z" fill="#788ACC"/>
<path d="M1538.05 216.483H1531.24V241.891H1538.05V216.483Z" fill="#C27B1B"/>
<path d="M1554.4 216.483H1548.07V241.891H1554.4V216.483Z" fill="#FFC338"/>
<path d="M1561.21 216.483H1554.4V241.891H1561.21V216.483Z" fill="#C27B1B"/>
<path d="M1577.56 216.483H1571.24V241.891H1577.56V216.483Z" fill="#FFC338"/>
<path d="M1584.37 216.483H1577.56V241.891H1584.37V216.483Z" fill="#C27B1B"/>
<path d="M1600.72 216.483H1594.4V241.891H1600.72V216.483Z" fill="#FFC338"/>
<path d="M1607.53 216.483H1600.72V241.891H1607.53V216.483Z" fill="#C27B1B"/>
<path d="M1606.52 546.782H1531.24V550.284H1606.52V546.782Z" fill="#788ACC"/>
<path d="M1606.52 521.374H1531.24V524.876H1606.52V521.374Z" fill="#788ACC"/>
<path d="M1606.52 495.966H1531.24V499.468H1606.52V495.966Z" fill="#788ACC"/>
<path d="M1606.52 470.557H1531.24V474.059H1606.52V470.557Z" fill="#788ACC"/>
<path d="M1606.52 445.149H1531.24V448.651H1606.52V445.149Z" fill="#788ACC"/>
<path d="M1606.52 419.741H1531.24V423.243H1606.52V419.741Z" fill="#788ACC"/>
<path d="M1606.52 394.332H1531.24V397.835H1606.52V394.332Z" fill="#788ACC"/>
<path d="M1606.52 368.924H1531.24V372.426H1606.52V368.924Z" fill="#788ACC"/>
<path d="M1606.52 343.524H1531.24V347.027H1606.52V343.524Z" fill="#788ACC"/>
<path d="M1606.52 318.116H1531.24V321.618H1606.52V318.116Z" fill="#788ACC"/>
<path d="M1606.52 292.708H1531.24V296.21H1606.52V292.708Z" fill="#788ACC"/>
<path d="M1606.52 267.3H1531.24V270.802H1606.52V267.3Z" fill="#788ACC"/>
<path d="M1606.52 241.891H1531.24V245.394H1606.52V241.891Z" fill="#788ACC"/>
<path d="M1487.56 541.529H1464.01V546.782H1487.56V541.529Z" fill="#F49055"/>
<path d="M1425.37 217.661H1417.2V218.84H1425.37V217.661Z" fill="#C27B1B"/>
<path d="M1425.37 223.134H1417.2V224.312H1425.37V223.134Z" fill="#C27B1B"/>
<path d="M1425.37 228.598H1417.2V229.776H1425.37V228.598Z" fill="#C27B1B"/>
<path d="M1425.37 234.061H1417.2V235.24H1425.37V234.061Z" fill="#C27B1B"/>
<path d="M1452.61 541.529H1429.07V546.782H1452.61V541.529Z" fill="#F49055"/>
<path d="M1522.5 541.529H1498.96V546.782H1522.5V541.529Z" fill="#F49055"/>
<path d="M1460.32 217.661H1452.15V218.84H1460.32V217.661Z" fill="#C27B1B"/>
<path d="M1460.32 223.134H1452.15V224.312H1460.32V223.134Z" fill="#C27B1B"/>
<path d="M1460.32 228.598H1452.15V229.776H1460.32V228.598Z" fill="#C27B1B"/>
<path d="M1460.32 234.061H1452.15V235.24H1460.32V234.061Z" fill="#C27B1B"/>
<path d="M1495.26 217.661H1487.09V218.84H1495.26V217.661Z" fill="#C27B1B"/>
<path d="M1495.26 223.134H1487.09V224.312H1495.26V223.134Z" fill="#C27B1B"/>
<path d="M1495.26 228.598H1487.09V229.776H1495.26V228.598Z" fill="#C27B1B"/>
<path d="M1495.26 234.061H1487.09V235.24H1495.26V234.061Z" fill="#C27B1B"/>
<path d="M1530.21 217.661H1522.04V218.84H1530.21V217.661Z" fill="#C27B1B"/>
<path d="M1530.21 223.134H1522.04V224.312H1530.21V223.134Z" fill="#C27B1B"/>
<path d="M1530.21 228.598H1522.04V229.776H1530.21V228.598Z" fill="#C27B1B"/>
<path d="M1530.21 234.061H1522.04V235.24H1530.21V234.061Z" fill="#C27B1B"/>
<path d="M1487.56 516.12H1464.01V521.374H1487.56V516.12Z" fill="#F49055"/>
<path d="M1452.61 516.12H1429.07V521.374H1452.61V516.12Z" fill="#F49055"/>
<path d="M1522.5 516.12H1498.96V521.374H1522.5V516.12Z" fill="#F49055"/>
<path d="M1487.56 490.712H1464.01V495.965H1487.56V490.712Z" fill="#F2F3F8"/>
<path d="M1452.61 490.712H1429.07V495.965H1452.61V490.712Z" fill="#F49055"/>
<path d="M1522.5 490.712H1498.96V495.965H1522.5V490.712Z" fill="#F49055"/>
<path d="M1487.56 465.304H1464.01V470.557H1487.56V465.304Z" fill="#F49055"/>
<path d="M1452.61 465.304H1429.07V470.557H1452.61V465.304Z" fill="#F2F3F8"/>
<path d="M1522.5 465.304H1498.96V470.557H1522.5V465.304Z" fill="#F2F3F8"/>
<path d="M1487.56 439.904H1464.01V445.157H1487.56V439.904Z" fill="#F2F3F8"/>
<path d="M1452.61 439.904H1429.07V445.157H1452.61V439.904Z" fill="#F2F3F8"/>
<path d="M1522.5 439.904H1498.96V445.157H1522.5V439.904Z" fill="#F2F3F8"/>
<path d="M1522.5 414.496H1498.96V419.749H1522.5V414.496Z" fill="#F2F3F8"/>
<path d="M1553.5 217.661H1548.99V218.84H1553.5V217.661Z" fill="#C27B1B"/>
<path d="M1553.5 223.134H1548.99V224.312H1553.5V223.134Z" fill="#C27B1B"/>
<path d="M1553.5 228.598H1548.99V229.776H1553.5V228.598Z" fill="#C27B1B"/>
<path d="M1553.5 234.061H1548.99V235.24H1553.5V234.061Z" fill="#C27B1B"/>
<path d="M1576.66 217.661H1572.15V218.84H1576.66V217.661Z" fill="#C27B1B"/>
<path d="M1576.66 223.134H1572.15V224.312H1576.66V223.134Z" fill="#C27B1B"/>
<path d="M1576.66 228.598H1572.15V229.776H1576.66V228.598Z" fill="#C27B1B"/>
<path d="M1576.66 234.061H1572.15V235.24H1576.66V234.061Z" fill="#C27B1B"/>
<path d="M1599.82 217.661H1595.31V218.84H1599.82V217.661Z" fill="#C27B1B"/>
<path d="M1599.82 223.134H1595.31V224.312H1599.82V223.134Z" fill="#C27B1B"/>
<path d="M1599.82 228.598H1595.31V229.776H1599.82V228.598Z" fill="#C27B1B"/>
<path d="M1599.82 234.061H1595.31V235.24H1599.82V234.061Z" fill="#C27B1B"/>
<path d="M1560.2 419.741H1531.24V474.051H1560.2V419.741Z" fill="#788ACC"/>
<path d="M1487.56 550.276H1464.01V555.832H1487.56V550.276Z" fill="#F2F3F8"/>
<path d="M1452.61 550.276H1429.07V555.832H1452.61V550.276Z" fill="#F2F3F8"/>
<path d="M1522.5 550.276H1498.96V555.832H1522.5V550.276Z" fill="#F2F3F8"/>
<path d="M1606.52 470.557H1531.24V555.841H1606.52V470.557Z" fill="#788ACC"/>
<path d="M1572.46 499.468H1565.31V516.129H1572.46V499.468Z" fill="#50517D"/>
<path d="M1572.46 474.059H1565.31V490.72H1572.46V474.059Z" fill="#50517D"/>
<path d="M1572.46 524.867H1565.31V541.528H1572.46V524.867Z" fill="#50517D"/>
<path d="M1572.45 474.059H1568.88V490.72H1572.45V474.059Z" fill="#C3D0F2"/>
<path d="M1572.45 499.468H1568.88V516.129H1572.45V499.468Z" fill="#C3D0F2"/>
<path d="M1572.45 524.867H1568.88V541.528H1572.45V524.867Z" fill="#C3D0F2"/>
<path d="M1515.55 542.059C1475.7 524.337 1412.22 533.135 1385.47 569.033H1638.76C1625.18 558.678 1604.44 551.488 1583.86 553.525C1564.32 555.462 1548.39 556.666 1515.55 542.059Z" fill="#CF9278"/>
<path d="M1508.19 546.083C1456.71 525.794 1410.7 538.489 1385.47 569.025H1609.9C1616.89 569.025 1621.44 564.024 1614.66 560.227C1606.11 555.445 1595.88 553.5 1581.34 554.957C1557.54 557.339 1539.32 558.358 1508.19 546.083Z" fill="#E8AC8E"/>
<path d="M2119 569.33H0.55957V572.595H2119V569.33Z" fill="#BD8066"/>
<path d="M1167.63 527.502C1157.1 527.502 1148.56 536.797 1148.56 548.263C1148.56 559.73 1157.1 569.024 1167.63 569.024H1183.19V527.502H1167.63Z" fill="#575756"/>
<path d="M1183.19 569.024C1193.72 569.024 1202.26 559.729 1202.26 548.263C1202.26 536.797 1193.72 527.502 1183.19 527.502C1172.66 527.502 1164.12 536.797 1164.12 548.263C1164.12 559.729 1172.66 569.024 1183.19 569.024Z" fill="#333332"/>
<path d="M1183.19 558.619C1188.44 558.619 1192.69 553.982 1192.69 548.263C1192.69 542.544 1188.44 537.908 1183.19 537.908C1177.94 537.908 1173.68 542.544 1173.68 548.263C1173.68 553.982 1177.94 558.619 1183.19 558.619Z" fill="#F7C100"/>
<path d="M1183.19 556.253C1187.24 556.253 1190.52 552.676 1190.52 548.263C1190.52 543.851 1187.24 540.274 1183.19 540.274C1179.14 540.274 1175.85 543.851 1175.85 548.263C1175.85 552.676 1179.14 556.253 1183.19 556.253Z" fill="#E69600"/>
<path d="M1186.21 548.263C1186.21 551.858 1184.03 554.897 1181.03 555.899C1178.04 554.897 1175.85 551.858 1175.85 548.263C1175.85 544.668 1178.04 541.629 1181.03 540.627C1184.03 541.638 1186.21 544.677 1186.21 548.263Z" fill="#F7C100"/>
<path d="M1182.54 548.264C1182.54 550.469 1180.9 552.254 1178.87 552.254C1177.9 552.254 1177 551.842 1176.36 551.168C1176.03 550.267 1175.85 549.282 1175.85 548.264C1175.85 547.245 1176.03 546.26 1176.36 545.359C1177.01 544.685 1177.9 544.273 1178.87 544.273C1180.9 544.273 1182.54 546.058 1182.54 548.264Z" fill="#E69600"/>
<path d="M1262.01 468.183L1258.85 462.913L1252.43 471.39C1251.6 472.493 1251.15 473.807 1251.15 475.162V520.809H1258.31V477.663C1258.31 476.627 1258.54 475.6 1258.98 474.657L1262.01 468.183Z" fill="#4D4D4C"/>
<path d="M1288.64 504.544L1258.32 496.563H1191.71V520.801L1187.71 520.792L1173.96 544.273V552.262H1288.02C1289.99 552.262 1291.59 550.772 1291.59 548.937V507.81C1291.59 506.202 1290.34 504.822 1288.64 504.544Z" fill="url(#paint0_linear_61_1802)"/>
<path d="M1153.82 541.975L1141.36 520.801H1119.29V524.455H1139.03L1151.91 542.934L1153.82 541.975Z" fill="#E69600"/>
<path d="M1151.91 542.934H1136.73L1123.85 524.455H1139.03L1151.91 542.934Z" fill="url(#paint1_linear_61_1802)"/>
<path d="M1119.29 520.801H1104.19V524.455H1119.29V520.801Z" fill="#FFE46B"/>
<path d="M1110.46 527.502C1099.93 527.502 1091.4 536.797 1091.4 548.263C1091.4 559.73 1099.93 569.024 1110.46 569.024H1126.02V527.502H1110.46Z" fill="#575756"/>
<path d="M1126.02 569.024C1136.55 569.024 1145.09 559.729 1145.09 548.263C1145.09 536.797 1136.55 527.502 1126.02 527.502C1115.49 527.502 1106.95 536.797 1106.95 548.263C1106.95 559.729 1115.49 569.024 1126.02 569.024Z" fill="#333332"/>
<path d="M1126.02 558.619C1131.27 558.619 1135.53 553.982 1135.53 548.263C1135.53 542.544 1131.27 537.908 1126.02 537.908C1120.77 537.908 1116.51 542.544 1116.51 548.263C1116.51 553.982 1120.77 558.619 1126.02 558.619Z" fill="#F7C100"/>
<path d="M1126.02 556.253C1130.07 556.253 1133.35 552.676 1133.35 548.263C1133.35 543.851 1130.07 540.274 1126.02 540.274C1121.97 540.274 1118.69 543.851 1118.69 548.263C1118.69 552.676 1121.97 556.253 1126.02 556.253Z" fill="#E69600"/>
<path d="M1129.04 548.263C1129.04 551.858 1126.86 554.897 1123.86 555.899C1120.87 554.897 1118.69 551.858 1118.69 548.263C1118.69 544.668 1120.87 541.629 1123.86 540.627C1126.86 541.638 1129.04 544.677 1129.04 548.263Z" fill="#F7C100"/>
<path d="M1125.37 548.264C1125.37 550.469 1123.72 552.254 1121.69 552.254C1120.72 552.254 1119.83 551.842 1119.17 551.168C1118.85 550.267 1118.67 549.282 1118.67 548.264C1118.67 547.245 1118.85 546.26 1119.17 545.359C1119.83 544.685 1120.71 544.273 1121.69 544.273C1123.73 544.273 1125.37 546.058 1125.37 548.264Z" fill="#E69600"/>
<path d="M1295.44 539.281H1280.27L1267.38 520.801H1282.56L1295.44 539.281Z" fill="url(#paint2_linear_61_1802)"/>
<path d="M1280.27 539.281L1244.89 539.289L1257.79 520.801H1267.38L1280.27 539.281Z" fill="#B05103"/>
<path d="M1254.35 527.502C1243.82 527.502 1235.28 536.797 1235.28 548.263C1235.28 559.73 1243.82 569.024 1254.35 569.024H1269.9V527.502H1254.35Z" fill="#333332"/>
<path d="M1269.9 569.024C1280.43 569.024 1288.97 559.729 1288.97 548.263C1288.97 536.797 1280.43 527.502 1269.9 527.502C1259.37 527.502 1250.83 536.797 1250.83 548.263C1250.83 559.729 1259.37 569.024 1269.9 569.024Z" fill="#575756"/>
<path d="M1269.9 558.619C1275.15 558.619 1279.41 553.982 1279.41 548.263C1279.41 542.544 1275.15 537.908 1269.9 537.908C1264.65 537.908 1260.39 542.544 1260.39 548.263C1260.39 553.982 1264.65 558.619 1269.9 558.619Z" fill="#FFE46B"/>
<path d="M1269.9 556.253C1273.95 556.253 1277.23 552.676 1277.23 548.263C1277.23 543.851 1273.95 540.274 1269.9 540.274C1265.85 540.274 1262.57 543.851 1262.57 548.263C1262.57 552.676 1265.85 556.253 1269.9 556.253Z" fill="#E69600"/>
<path d="M1272.92 548.263C1272.92 551.858 1270.73 554.897 1267.74 555.899C1264.74 554.897 1262.56 551.858 1262.56 548.263C1262.56 544.668 1264.74 541.629 1267.74 540.627C1270.73 541.638 1272.92 544.677 1272.92 548.263Z" fill="#F7C100"/>
<path d="M1269.25 548.264C1269.25 550.469 1267.6 552.254 1265.57 552.254C1264.6 552.254 1263.71 551.842 1263.06 551.168C1262.74 550.267 1262.56 549.282 1262.56 548.264C1262.56 547.245 1262.74 546.26 1263.06 545.359C1263.72 544.685 1264.6 544.273 1265.57 544.273C1267.61 544.273 1269.25 546.058 1269.25 548.264Z" fill="#E69600"/>
<path d="M1297.35 538.321L1284.89 517.147H1255.45L1242.99 538.321L1244.89 539.289L1257.79 520.801H1282.56L1295.44 539.28L1297.35 538.321Z" fill="#E69600"/>
<path d="M1255.45 517.147H1240.27L1227.81 538.321H1242.99L1255.45 517.147Z" fill="#FFE46B"/>
<path d="M1244.89 539.289H1229.72L1227.81 538.321H1242.99L1244.89 539.289Z" fill="#B05103"/>
<path d="M1235.58 524.455H1225.61V527.435H1235.58V524.455Z" fill="#333332"/>
<path d="M1225.6 524.455H1213.92V527.435H1225.6V524.455Z" fill="#4D4D4C"/>
<path d="M1235.58 534.869H1225.61V537.849H1235.58V534.869Z" fill="#333332"/>
<path d="M1225.6 534.869H1213.92V537.849H1225.6V534.869Z" fill="#4D4D4C"/>
<path d="M1235.58 545.292H1225.61V548.272H1235.58V545.292Z" fill="#333332"/>
<path d="M1225.6 545.292H1213.92V548.272H1225.6V545.292Z" fill="#4D4D4C"/>
<path d="M1238.31 496.563H1235.58C1230.74 496.563 1226.82 500.208 1226.82 504.704V520.801H1229.55V504.704C1229.55 500.2 1233.47 496.563 1238.31 496.563Z" fill="#FFE46B"/>
<path d="M1160.85 465.438H1198.08L1191.71 496.563V520.801H1154.48V496.563L1160.85 465.438Z" fill="#4D4D4C"/>
<path d="M1164.42 454.468H1201.67V465.43H1160.85V457.785C1160.85 455.958 1162.44 454.468 1164.42 454.468Z" fill="#FFE46B"/>
<path d="M1232 454.468H1201.67C1199.69 454.468 1198.09 455.958 1198.09 457.794V465.43H1235.58V457.794C1235.58 455.958 1233.97 454.468 1232 454.468Z" fill="#F7C100"/>
<path d="M1163.67 465.438H1194.98L1188.9 496.563V517.147H1157.29V496.563L1163.67 465.438Z" fill="url(#paint3_linear_61_1802)"/>
<path d="M1193.8 471.474H1162.43L1163.67 465.438H1194.98L1193.8 471.474Z" fill="#4F5180"/>
<path d="M1194.98 458.131H1186.74V461.784H1194.98V458.131Z" fill="white"/>
<path d="M1188.9 496.563H1157.29V517.147H1188.9V496.563Z" fill="#6A6EAB"/>
<path d="M1171.91 458.131H1163.67V461.784H1171.91V458.131Z" fill="white"/>
<path d="M1226.82 520.792V504.695C1226.82 500.2 1230.74 496.554 1235.58 496.554V465.43H1198.08L1191.71 496.554V520.792H1226.84H1226.82Z" fill="#333332"/>
<path d="M1223.42 465.438H1201.22L1194.85 496.563V517.147H1223.42V465.438Z" fill="#4F5180"/>
<path d="M1235.58 496.563V465.438H1226.82V504.695C1226.82 500.2 1230.74 496.563 1235.58 496.563Z" fill="#4F5180"/>
<path d="M1145.15 512.113C1145.15 513.317 1144.25 514.293 1143.15 514.293C1142.04 514.293 1141.15 513.317 1141.15 512.113C1141.15 510.909 1142.04 509.932 1143.15 509.932C1144.25 509.932 1145.15 510.909 1145.15 512.113Z" fill="#E88D00"/>
<path d="M1145.45 508.543V507.752H1143.16C1140.95 507.752 1139.16 509.705 1139.16 512.104V520.784H1145.45V508.543Z" fill="#FFE46B"/>
<path d="M1145.45 507.752C1143.24 507.752 1141.45 509.705 1141.45 512.104V520.793H1149.45V512.104C1149.44 509.705 1147.66 507.752 1145.45 507.752Z" fill="#F7C100"/>
<path d="M1147.44 512.113C1147.44 513.317 1146.55 514.293 1145.44 514.293C1144.34 514.293 1143.44 513.317 1143.44 512.113C1143.44 510.909 1144.34 509.932 1145.44 509.932C1146.55 509.932 1147.44 510.909 1147.44 512.113Z" fill="#E88D00"/>
<path d="M1224.89 541.975L1212.42 520.801H1190.37V524.455H1210.1L1222.99 542.934L1224.89 541.975Z" fill="#E69600"/>
<path d="M1222.99 542.934H1207.81L1194.92 524.455H1210.1L1222.99 542.934Z" fill="url(#paint4_linear_61_1802)"/>
<path d="M1147.44 512.104C1147.44 513.308 1146.54 514.285 1145.44 514.285C1144.34 514.285 1143.44 513.308 1143.44 512.104C1143.44 510.9 1144.34 509.924 1145.44 509.924C1146.54 509.924 1147.44 510.9 1147.44 512.104Z" fill="#E88D00"/>
<path d="M1096.75 439.457C1097.85 439.457 1098.75 438.481 1098.75 437.277C1098.75 436.073 1097.85 435.096 1096.75 435.096C1095.64 435.096 1094.75 436.073 1094.75 437.277C1094.75 438.481 1095.64 439.457 1096.75 439.457Z" fill="#E88D00"/>
<path d="M1153.52 510.185C1153.52 510.185 1146.96 492.429 1141.24 476.071C1138.52 468.326 1136.49 461.894 1130.18 456.287C1120.73 447.868 1103.75 433.901 1103.75 433.901C1103.06 433.295 1102.19 432.933 1101.23 432.933H1096.74C1094.53 432.933 1092.74 434.886 1092.74 437.285C1092.74 438.22 1093.01 439.079 1093.46 439.786L1118.51 484.086H1123L1124.22 482.966L1142.1 514.512C1142.81 515.691 1144.04 516.465 1145.43 516.465H1149.92C1152.13 516.465 1153.92 514.512 1153.92 512.113C1153.93 511.414 1153.78 510.766 1153.52 510.185Z" fill="url(#paint5_linear_61_1802)"/>
<path d="M1153.52 510.185C1153.52 510.185 1146.96 492.429 1141.24 476.071C1138.52 468.326 1136.49 461.894 1130.18 456.287C1120.73 447.868 1103.75 433.901 1103.75 433.901C1103.06 433.295 1102.19 432.933 1101.23 432.933C1099.02 432.933 1097.23 434.886 1097.23 437.285C1097.23 438.22 1097.5 439.079 1097.95 439.786L1123 484.086L1127.16 480.239L1146.59 514.512C1147.31 515.691 1148.53 516.465 1149.92 516.465C1152.13 516.465 1153.92 514.512 1153.92 512.113C1153.93 511.414 1153.78 510.766 1153.52 510.185Z" fill="url(#paint6_linear_61_1802)"/>
<path d="M1151.93 512.104C1151.93 513.308 1151.04 514.285 1149.93 514.285C1148.83 514.285 1147.93 513.308 1147.93 512.104C1147.93 510.9 1148.83 509.924 1149.93 509.924C1151.04 509.924 1151.93 510.9 1151.93 512.104Z" fill="#E88D00"/>
<path d="M1101.23 439.457C1102.33 439.457 1103.23 438.481 1103.23 437.277C1103.23 436.073 1102.33 435.096 1101.23 435.096C1100.12 435.096 1099.23 436.073 1099.23 437.277C1099.23 438.481 1100.12 439.457 1101.23 439.457Z" fill="#E88D00"/>
<path d="M1193.97 544.273H1121.7V552.262H1193.97V544.273Z" fill="#E69600"/>
<path d="M1173.96 544.273H1128.03L1141.77 520.801H1187.71L1173.96 544.273Z" fill="url(#paint7_linear_61_1802)"/>
<path d="M1146.13 525.322C1144.35 526.214 1142.24 525.785 1141.43 524.371C1140.61 522.956 1141.39 521.087 1143.18 520.203C1144.96 519.311 1147.06 519.74 1147.88 521.155C1148.69 522.569 1147.91 524.438 1146.13 525.322Z" fill="#333332"/>
<path d="M1147.87 521.189L1135.75 500.196L1129.31 503.414L1141.43 524.406L1147.87 521.189Z" fill="#333332"/>
<path d="M1134.01 504.333C1132.23 505.226 1130.13 504.796 1129.31 503.382C1128.5 501.968 1129.28 500.099 1131.06 499.215C1132.85 498.322 1134.95 498.752 1135.76 500.166C1136.58 501.58 1135.8 503.449 1134.01 504.333Z" fill="#4D4D4C"/>
<path d="M1133.44 503.348C1132.35 503.896 1131.05 503.635 1130.56 502.767C1130.06 501.9 1130.54 500.755 1131.62 500.208C1132.72 499.661 1134 499.922 1134.51 500.789C1135.02 501.656 1134.54 502.801 1133.44 503.348Z" fill="#DADADA"/>
<path d="M1130.56 502.768L1119.77 484.086H1123.01L1124.23 482.958L1134.51 500.789L1130.56 502.768Z" fill="#DADADA"/>
<path d="M1182.73 527.502C1172.2 527.502 1163.67 536.797 1163.67 548.263C1163.67 559.73 1172.2 569.024 1182.73 569.024H1198.29V527.502H1182.73Z" fill="#333332"/>
<path d="M1198.29 569.024C1208.82 569.024 1217.36 559.729 1217.36 548.263C1217.36 536.797 1208.82 527.502 1198.29 527.502C1187.76 527.502 1179.22 536.797 1179.22 548.263C1179.22 559.729 1187.76 569.024 1198.29 569.024Z" fill="#575756"/>
<path d="M1198.29 558.619C1203.54 558.619 1207.8 553.982 1207.8 548.263C1207.8 542.544 1203.54 537.908 1198.29 537.908C1193.04 537.908 1188.78 542.544 1188.78 548.263C1188.78 553.982 1193.04 558.619 1198.29 558.619Z" fill="#FFE46B"/>
<path d="M1198.29 556.253C1202.34 556.253 1205.62 552.676 1205.62 548.263C1205.62 543.851 1202.34 540.274 1198.29 540.274C1194.24 540.274 1190.96 543.851 1190.96 548.263C1190.96 552.676 1194.24 556.253 1198.29 556.253Z" fill="#E69600"/>
<path d="M1201.31 548.263C1201.31 551.858 1199.13 554.897 1196.14 555.899C1193.14 554.897 1190.96 551.858 1190.96 548.263C1190.96 544.668 1193.14 541.629 1196.14 540.627C1199.13 541.638 1201.31 544.677 1201.31 548.263Z" fill="#F7C100"/>
<path d="M1197.65 548.264C1197.65 550.469 1196 552.254 1193.97 552.254C1193 552.254 1192.11 551.842 1191.45 551.168C1191.13 550.267 1190.95 549.282 1190.95 548.264C1190.95 547.245 1191.13 546.26 1191.45 545.359C1192.11 544.685 1192.99 544.273 1193.97 544.273C1196 544.273 1197.65 546.058 1197.65 548.264Z" fill="#E69600"/>
<path d="M1150.56 512.104C1150.56 513.308 1149.66 514.284 1148.56 514.284C1147.45 514.284 1146.55 513.308 1146.55 512.104C1146.55 510.9 1147.45 509.923 1148.56 509.923C1149.66 509.923 1150.56 510.9 1150.56 512.104Z" fill="#D76A01"/>
<path d="M1154.13 509.604C1153.41 508.484 1152.2 507.743 1150.85 507.743H1148.56C1146.35 507.743 1144.56 509.696 1144.56 512.096C1144.56 512.491 1144.62 512.862 1144.71 513.224H1144.7L1144.74 513.384V513.392L1150.56 534.179H1152.86L1160.7 520.784L1154.13 509.604Z" fill="#F7C100"/>
<path d="M1152.85 534.187L1160.69 520.792L1154.12 509.604H1154.11C1153.39 508.476 1152.19 507.743 1150.84 507.743C1148.63 507.743 1146.83 509.696 1146.83 512.096C1146.83 512.491 1146.89 512.862 1146.98 513.224H1146.97L1147.02 513.384V513.392L1152.85 534.187Z" fill="#E69600"/>
<path d="M1150.85 514.284C1151.95 514.284 1152.85 513.308 1152.85 512.104C1152.85 510.9 1151.95 509.923 1150.85 509.923C1149.74 509.923 1148.84 510.9 1148.84 512.104C1148.84 513.308 1149.74 514.284 1150.85 514.284Z" fill="#D76A01"/>
<path d="M1154.7 483.842C1156.54 483.842 1158.03 482.655 1158.03 481.199C1158.03 479.742 1156.54 478.555 1154.7 478.555C1152.86 478.555 1151.37 479.742 1151.37 481.199C1151.37 482.655 1152.86 483.842 1154.7 483.842Z" fill="#DADADA"/>
<path d="M1158.04 481.193V459.523H1151.38V481.193H1158.04Z" fill="#DADADA"/>
<path d="M1154.7 462.163C1156.54 462.163 1158.03 460.976 1158.03 459.52C1158.03 458.063 1156.54 456.876 1154.7 456.876C1152.86 456.876 1151.37 458.063 1151.37 459.52C1151.37 460.976 1152.86 462.163 1154.7 462.163Z" fill="#DADADA"/>
<path d="M1154.7 520.793C1157.7 520.793 1160.13 518.865 1160.13 516.491C1160.13 514.117 1157.7 512.189 1154.7 512.189C1151.71 512.189 1149.28 514.117 1149.28 516.491C1149.28 518.865 1151.71 520.793 1154.7 520.793Z" fill="#333332"/>
<path d="M1160.13 516.486V481.194H1149.29V516.486H1160.13Z" fill="#333332"/>
<path d="M1154.7 485.501C1157.7 485.501 1160.13 483.573 1160.13 481.199C1160.13 478.824 1157.7 476.896 1154.7 476.896C1151.71 476.896 1149.28 478.824 1149.28 481.199C1149.29 483.573 1151.71 485.501 1154.7 485.501Z" fill="#333332"/>
<path d="M1162.17 512.104C1162.17 513.308 1161.28 514.284 1160.17 514.284C1159.07 514.284 1158.17 513.308 1158.17 512.104C1158.17 510.9 1159.07 509.923 1160.17 509.923C1161.28 509.923 1162.17 510.9 1162.17 512.104Z" fill="#D76A01"/>
<path d="M1165.74 509.604C1165.02 508.484 1163.81 507.743 1162.46 507.743H1160.17C1157.96 507.743 1156.17 509.696 1156.17 512.096C1156.17 512.491 1156.22 512.862 1156.31 513.224H1156.31L1156.35 513.384V513.392L1162.17 534.179H1164.46L1172.3 520.784L1165.74 509.604Z" fill="#F7C100"/>
<path d="M1164.46 534.187L1172.3 520.792L1165.74 509.604H1165.73C1165.01 508.476 1163.81 507.743 1162.45 507.743C1160.24 507.743 1158.45 509.696 1158.45 512.096C1158.45 512.491 1158.51 512.862 1158.6 513.224H1158.59L1158.63 513.384V513.392L1164.46 534.187Z" fill="#E69600"/>
<path d="M1162.46 514.284C1163.57 514.284 1164.46 513.308 1164.46 512.104C1164.46 510.9 1163.57 509.923 1162.46 509.923C1161.36 509.923 1160.46 510.9 1160.46 512.104C1160.46 513.308 1161.36 514.284 1162.46 514.284Z" fill="#D77A00"/>
<path d="M1162.17 534.187H1152.85L1150.11 524.455H1159.45L1162.17 534.187Z" fill="#F7C100"/>
<path d="M1158.63 469.025C1158.63 470.229 1157.74 471.205 1156.63 471.205C1155.53 471.205 1154.63 470.229 1154.63 469.025C1154.63 467.821 1155.53 466.844 1156.63 466.844C1157.75 466.844 1158.63 467.821 1158.63 469.025Z" fill="#D76A01"/>
<path d="M1124.25 459.116C1125.36 459.116 1126.25 458.139 1126.25 456.935C1126.25 455.731 1125.36 454.755 1124.25 454.755C1123.15 454.755 1122.25 455.731 1122.25 456.935C1122.25 458.139 1123.15 459.116 1124.25 459.116Z" fill="#D76A01"/>
<path d="M1151.8 469.025C1151.8 470.229 1150.9 471.205 1149.8 471.205C1148.69 471.205 1147.79 470.229 1147.79 469.025C1147.79 467.821 1148.69 466.844 1149.8 466.844C1150.9 466.844 1151.8 467.821 1151.8 469.025Z" fill="#D76A01"/>
<path d="M1119.42 456.935C1119.42 458.139 1118.52 459.116 1117.42 459.116C1116.31 459.116 1115.42 458.139 1115.42 456.935C1115.42 455.731 1116.31 454.755 1117.42 454.755C1118.52 454.755 1119.42 455.731 1119.42 456.935Z" fill="#D76A01"/>
<path d="M1153.57 465.834L1143.95 458.114C1141.51 456.161 1138.49 454.965 1135.28 454.687L1120.04 453.374C1119.93 453.357 1119.81 453.357 1119.69 453.357H1117.41C1115.59 453.357 1114.11 454.965 1114.11 456.944C1114.11 458.543 1115.08 459.899 1116.41 460.362L1148.79 472.451C1149.11 472.561 1149.44 472.62 1149.8 472.62H1152.08C1153.9 472.62 1155.37 471.012 1155.37 469.033C1155.37 467.636 1154.64 466.423 1153.57 465.834Z" fill="#E69600"/>
<path d="M1153.57 465.834L1143.95 458.114C1141.51 456.161 1138.49 454.965 1135.28 454.687L1120.04 453.374C1119.93 453.357 1119.81 453.357 1119.69 453.357C1117.87 453.357 1116.39 454.965 1116.39 456.944C1116.39 458.543 1117.36 459.899 1118.69 460.362L1151.07 472.451C1151.39 472.561 1151.72 472.62 1152.08 472.62C1153.9 472.62 1155.37 471.012 1155.37 469.033C1155.37 467.627 1154.64 466.423 1153.57 465.834Z" fill="#F7C100"/>
<path d="M1154.08 469.025C1154.08 470.229 1153.18 471.205 1152.08 471.205C1150.97 471.205 1150.08 470.229 1150.08 469.025C1150.08 467.821 1150.97 466.844 1152.08 466.844C1153.18 466.844 1154.08 467.821 1154.08 469.025Z" fill="#D76A01"/>
<path d="M1119.7 459.116C1120.8 459.116 1121.7 458.14 1121.7 456.936C1121.7 455.731 1120.8 454.755 1119.7 454.755C1118.59 454.755 1117.7 455.731 1117.7 456.936C1117.7 458.14 1118.59 459.116 1119.7 459.116Z" fill="#D76A01"/>
<path d="M1153.35 472.443H1151.07L1118.69 460.353H1120.98L1153.35 472.443Z" fill="#E69600"/>
<path d="M1148.47 471.853H1118.94L1123.76 480.382H1153.3L1148.47 471.853Z" fill="url(#paint8_linear_61_1802)"/>
<path d="M1121.7 456.935C1121.7 458.139 1120.8 459.116 1119.7 459.116C1118.59 459.116 1117.7 458.139 1117.7 456.935C1117.7 455.731 1118.59 454.755 1119.7 454.755C1120.8 454.755 1121.7 455.731 1121.7 456.935Z" fill="#D76A01"/>
<path d="M1122.2 438.111H1119.48H1117.2V456.935C1117.2 458.442 1118.32 459.655 1119.7 459.655H1121.98C1123.36 459.655 1124.48 458.434 1124.48 456.935V438.111H1122.2Z" fill="url(#paint9_linear_61_1802)"/>
<path d="M1119.47 438.111V456.935C1119.47 458.442 1120.6 459.655 1121.97 459.655C1123.35 459.655 1124.47 458.434 1124.47 456.935V438.111H1119.47Z" fill="url(#paint10_linear_61_1802)"/>
<path d="M1121.97 459.116C1123.08 459.116 1123.97 458.14 1123.97 456.935C1123.97 455.731 1123.08 454.755 1121.97 454.755C1120.87 454.755 1119.97 455.731 1119.97 456.935C1119.97 458.14 1120.87 459.116 1121.97 459.116Z" fill="#D76A01"/>
<path d="M1156.36 469.025C1156.36 470.229 1155.46 471.205 1154.36 471.205C1153.25 471.205 1152.36 470.229 1152.36 469.025C1152.36 467.821 1153.25 466.844 1154.36 466.844C1155.46 466.844 1156.36 467.821 1156.36 469.025Z" fill="#D76A01"/>
<path d="M1121.97 459.116C1123.08 459.116 1123.97 458.14 1123.97 456.935C1123.97 455.731 1123.08 454.755 1121.97 454.755C1120.87 454.755 1119.97 455.731 1119.97 456.935C1119.97 458.14 1120.87 459.116 1121.97 459.116Z" fill="#D76A01"/>
<path d="M1158.13 465.834L1148.51 458.114C1146.07 456.161 1143.05 454.965 1139.85 454.687L1124.61 453.374C1124.49 453.357 1124.37 453.357 1124.25 453.357H1121.97C1120.15 453.357 1118.68 454.965 1118.68 456.944C1118.68 458.543 1119.65 459.899 1120.98 460.362L1153.35 472.451C1153.67 472.561 1154.01 472.62 1154.36 472.62H1156.64C1158.46 472.62 1159.94 471.012 1159.94 469.033C1159.93 467.636 1159.2 466.423 1158.13 465.834Z" fill="#E69600"/>
<path d="M1158.13 465.834L1148.51 458.114C1146.07 456.161 1143.05 454.965 1139.85 454.687L1124.61 453.374C1124.49 453.357 1124.37 453.357 1124.25 453.357C1122.43 453.357 1120.96 454.965 1120.96 456.944C1120.96 458.543 1121.93 459.899 1123.26 460.362L1155.64 472.451C1155.95 472.561 1156.29 472.62 1156.64 472.62C1158.46 472.62 1159.94 471.012 1159.94 469.033C1159.93 467.627 1159.2 466.423 1158.13 465.834Z" fill="url(#paint11_linear_61_1802)"/>
<path d="M1158.63 469.025C1158.63 470.229 1157.74 471.205 1156.63 471.205C1155.53 471.205 1154.63 470.229 1154.63 469.025C1154.63 467.821 1155.53 466.844 1156.63 466.844C1157.75 466.844 1158.63 467.821 1158.63 469.025Z" fill="#D76A01"/>
<path d="M1124.25 459.116C1125.36 459.116 1126.25 458.14 1126.25 456.936C1126.25 455.731 1125.36 454.755 1124.25 454.755C1123.15 454.755 1122.25 455.731 1122.25 456.936C1122.25 458.14 1123.15 459.116 1124.25 459.116Z" fill="#E69600"/>
<path d="M1182.31 514.285C1183.41 514.285 1184.31 513.308 1184.31 512.104C1184.31 510.9 1183.41 509.924 1182.31 509.924C1181.2 509.924 1180.31 510.9 1180.31 512.104C1180.31 513.308 1181.2 514.285 1182.31 514.285Z" fill="#E88D00"/>
<path d="M1135.61 437.277C1135.61 438.481 1134.71 439.457 1133.61 439.457C1132.5 439.457 1131.61 438.481 1131.61 437.277C1131.61 436.073 1132.5 435.096 1133.61 435.096C1134.71 435.105 1135.61 436.073 1135.61 437.277Z" fill="#E88D00"/>
<path d="M1190.39 510.185C1190.39 510.185 1183.83 492.429 1178.11 476.071C1175.39 468.326 1173.35 461.894 1167.05 456.287C1157.6 447.868 1140.61 433.901 1140.61 433.901C1139.93 433.295 1139.06 432.933 1138.1 432.933H1133.61C1131.4 432.933 1129.6 434.886 1129.6 437.285C1129.6 438.22 1129.88 439.079 1130.33 439.786L1155.38 484.086H1159.87L1161.09 482.966L1178.97 514.512C1179.68 515.691 1180.91 516.465 1182.3 516.465H1186.79C1189 516.465 1190.79 514.512 1190.79 512.113C1190.79 511.414 1190.65 510.766 1190.39 510.185Z" fill="url(#paint12_linear_61_1802)"/>
<path d="M1190.39 510.185C1190.39 510.185 1183.83 492.429 1178.11 476.071C1175.39 468.326 1173.35 461.894 1167.05 456.287C1157.6 447.868 1140.61 433.901 1140.61 433.901C1139.93 433.295 1139.06 432.933 1138.1 432.933C1135.89 432.933 1134.1 434.886 1134.1 437.285C1134.1 438.22 1134.37 439.079 1134.82 439.786L1159.87 484.086L1164.03 480.239L1183.46 514.512C1184.17 515.691 1185.4 516.465 1186.79 516.465C1189 516.465 1190.79 514.512 1190.79 512.113C1190.79 511.414 1190.65 510.766 1190.39 510.185Z" fill="url(#paint13_linear_61_1802)"/>
<path d="M1186.8 514.285C1187.91 514.285 1188.8 513.308 1188.8 512.104C1188.8 510.9 1187.91 509.924 1186.8 509.924C1185.7 509.924 1184.8 510.9 1184.8 512.104C1184.8 513.308 1185.7 514.285 1186.8 514.285Z" fill="#E88D00"/>
<path d="M1140.1 437.277C1140.1 438.481 1139.2 439.457 1138.1 439.457C1136.99 439.457 1136.1 438.481 1136.1 437.277C1136.1 436.073 1136.99 435.096 1138.1 435.096C1139.2 435.105 1140.1 436.073 1140.1 437.277Z" fill="#E88D00"/>
<path d="M1186.8 514.285C1187.91 514.285 1188.8 513.308 1188.8 512.104C1188.8 510.9 1187.91 509.924 1186.8 509.924C1185.7 509.924 1184.8 510.9 1184.8 512.104C1184.8 513.308 1185.7 514.285 1186.8 514.285Z" fill="#E88D00"/>
<path d="M1189.09 508.543V507.752H1186.8C1184.59 507.752 1182.8 509.705 1182.8 512.104V520.784H1189.09V508.543Z" fill="#FFE46B"/>
<path d="M1189.09 507.752C1186.88 507.752 1185.09 509.705 1185.09 512.104V520.801H1193.09V512.104C1193.09 509.696 1191.3 507.752 1189.09 507.752Z" fill="#F7C100"/>
<path d="M1191.09 512.104C1191.09 513.308 1190.2 514.285 1189.09 514.285C1187.99 514.285 1187.09 513.308 1187.09 512.104C1187.09 510.9 1187.99 509.924 1189.09 509.924C1190.2 509.924 1191.09 510.9 1191.09 512.104Z" fill="#E69600"/>
<path d="M1183 525.322C1181.21 526.214 1179.11 525.785 1178.3 524.371C1177.48 522.956 1178.26 521.087 1180.05 520.203C1181.83 519.311 1183.93 519.74 1184.75 521.155C1185.56 522.569 1184.77 524.438 1183 525.322Z" fill="#333332"/>
<path d="M1184.74 521.192L1172.62 500.2L1166.17 503.417L1178.29 524.41L1184.74 521.192Z" fill="#333332"/>
<path d="M1170.88 504.333C1169.1 505.226 1167 504.796 1166.18 503.382C1165.37 501.968 1166.15 500.099 1167.93 499.215C1169.72 498.322 1171.82 498.752 1172.63 500.166C1173.44 501.58 1172.66 503.449 1170.88 504.333Z" fill="#4D4D4C"/>
<path d="M1170.31 503.348C1169.22 503.896 1167.92 503.635 1167.42 502.767C1166.93 501.9 1167.41 500.755 1168.49 500.208C1169.59 499.661 1170.87 499.922 1171.38 500.789C1171.88 501.656 1171.4 502.801 1170.31 503.348Z" fill="#DADADA"/>
<path d="M1167.42 502.768L1156.64 484.086H1159.87L1161.09 482.958L1171.38 500.789L1167.42 502.768Z" fill="#DADADA"/>
<path d="M1190.37 520.801H1175.27V524.455H1190.37V520.801Z" fill="#FFE46B"/>
<path d="M1146.16 467.77H1123.35L1118.94 471.853H1148.47L1146.16 467.77Z" fill="#D77A00"/>
<path d="M1176.13 420.81C1171.05 409.798 1170.98 409.764 1163.96 400.781L1152.69 393.044H1047.42L1049.37 403.543L1040.2 434.928L1029.55 438.506V441.63H1038.16H1134.82H1143.43C1143.43 441.63 1157.13 441.63 1166.37 439.205C1175.48 436.814 1179.57 428.277 1176.13 420.81Z" fill="#706F6F"/>
<path d="M1134.82 441.638H1143.43C1143.43 441.638 1157.13 441.638 1166.37 439.213C1175.48 436.822 1179.58 428.277 1176.13 420.818C1171.05 409.806 1170.98 409.772 1163.96 400.79L1152.69 393.053L1154.66 403.551L1145.48 434.937L1134.82 438.515V441.638Z" fill="#575756"/>
<path d="M1134.82 438.515H1029.55L1040.2 434.937H1145.48L1134.82 438.515Z" fill="#B2B2B2"/>
<path d="M1134.82 438.515H1029.55V441.638H1134.82V438.515Z" fill="#878787"/>
<path d="M1151.26 403.551H1154.65L1152.69 393.053H1047.42L1049.37 403.551H1052.77L1051.51 396.176H1150.03L1151.26 403.551Z" fill="#878787"/>
<path d="M1145.48 434.936L1154.65 403.551H1151.26L1142.09 434.936H1145.48Z" fill="#9D9D9C"/>
<path d="M1043.59 434.936L1052.77 403.551H1049.37L1040.2 434.936H1043.59Z" fill="#9D9D9C"/>
<path d="M1043.59 434.937H1068.3C1073.02 431.603 1074.72 425.794 1072.31 420.566C1067.8 410.783 1061.34 402.541 1061.34 402.541L1051.5 396.168L1052.76 403.543L1043.59 434.937Z" fill="#575756"/>
<path d="M1151.1 402.549H1061.34L1051.51 396.176H1150.03L1151.1 402.549Z" fill="url(#paint14_linear_61_1802)"/>
<path d="M1043.35 438.515H1038.17V441.638H1043.35V438.515Z" fill="#575756"/>
<path d="M1048.21 436.881L1046.31 435.778L1038.17 438.515H1043.35L1048.21 436.881Z" fill="#706F6F"/>
<path d="M1057.16 438.515H1051.98V441.638H1057.16V438.515Z" fill="#575756"/>
<path d="M1062.01 436.881L1060.12 435.778L1051.98 438.515H1057.16L1062.01 436.881Z" fill="#706F6F"/>
<path d="M1070.97 438.515H1065.79V441.638H1070.97V438.515Z" fill="#575756"/>
<path d="M1075.82 436.881L1073.92 435.778L1065.79 438.515H1070.97L1075.82 436.881Z" fill="#706F6F"/>
<path d="M1084.77 438.515H1079.59V441.638H1084.77V438.515Z" fill="#575756"/>
<path d="M1089.63 436.881L1087.73 435.778L1079.59 438.515H1084.78L1089.63 436.881Z" fill="#706F6F"/>
<path d="M1098.58 438.515H1093.4V441.638H1098.58V438.515Z" fill="#575756"/>
<path d="M1103.44 436.881L1101.54 435.778L1093.4 438.515H1098.58L1103.44 436.881Z" fill="#706F6F"/>
<path d="M1112.38 438.515H1107.2V441.638H1112.38V438.515Z" fill="#575756"/>
<path d="M1117.25 436.881L1115.34 435.778L1107.2 438.515H1112.39L1117.25 436.881Z" fill="#706F6F"/>
<path d="M1126.19 438.515H1121.01V441.638H1126.19V438.515Z" fill="#575756"/>
<path d="M1131.05 436.881L1129.15 435.778L1121.01 438.515H1126.2L1131.05 436.881Z" fill="#706F6F"/>
<path d="M1051.86 463.671H1048.57C1046.83 463.671 1045.33 464.773 1044.62 466.381C1044.51 466.634 1041.78 474.514 1041.78 474.514L1051.87 474.522V463.671H1051.86Z" fill="#FFE46B"/>
<path d="M1051.86 463.671C1050.13 463.671 1048.62 464.773 1047.92 466.381C1047.81 466.634 1045.07 474.514 1045.07 474.514L1056.26 474.522V468.452C1056.25 465.809 1054.28 463.671 1051.86 463.671Z" fill="#F7C100"/>
<path d="M1051.86 470.751C1053.03 470.751 1053.98 469.718 1053.98 468.444C1053.98 467.17 1053.03 466.137 1051.86 466.137C1050.69 466.137 1049.75 467.17 1049.75 468.444C1049.75 469.718 1050.69 470.751 1051.86 470.751Z" fill="#E69600"/>
<path d="M983.306 463.671H980.01C978.272 463.671 976.768 464.773 976.062 466.381C975.954 466.634 973.219 474.514 973.219 474.514L983.315 474.522V463.671H983.306Z" fill="#FFE46B"/>
<path d="M983.306 463.671C981.567 463.671 980.064 464.773 979.358 466.381C979.25 466.634 976.515 474.514 976.515 474.514L987.697 474.522V468.452C987.688 465.809 985.723 463.671 983.306 463.671Z" fill="#F7C100"/>
<path d="M983.306 470.751C984.476 470.751 985.424 469.718 985.424 468.444C985.424 467.17 984.476 466.137 983.306 466.137C982.136 466.137 981.187 467.17 981.187 468.444C981.187 469.718 982.136 470.751 983.306 470.751Z" fill="#E69600"/>
<path d="M796.163 531.906C786.747 531.906 779.114 540.215 779.114 550.469C779.114 560.724 786.747 569.033 796.163 569.033H806.476V531.914H796.163V531.906Z" fill="#575756"/>
<path d="M806.476 569.033C815.892 569.033 823.526 560.722 823.526 550.469C823.526 540.217 815.892 531.906 806.476 531.906C797.06 531.906 789.427 540.217 789.427 550.469C789.427 560.722 797.06 569.033 806.476 569.033Z" fill="#333332"/>
<path d="M806.476 560.698C811.667 560.698 815.875 556.119 815.875 550.469C815.875 544.82 811.667 540.24 806.476 540.24C801.286 540.24 797.078 544.82 797.078 550.469C797.078 556.119 801.286 560.698 806.476 560.698Z" fill="#706F6F"/>
<path d="M806.476 559.174C810.892 559.174 814.471 555.277 814.471 550.469C814.471 545.662 810.892 541.764 806.476 541.764C802.061 541.764 798.481 545.662 798.481 550.469C798.481 555.277 802.061 559.174 806.476 559.174Z" fill="#575756"/>
<path d="M770.078 555.268H838.646V524.817H770.078C768.168 524.817 766.61 526.257 766.61 528.041V552.044C766.619 553.828 768.168 555.268 770.078 555.268Z" fill="#575756"/>
<path d="M842.105 456.826H773.555C771.636 456.826 770.087 458.274 770.087 460.05V545.671H842.105V456.826Z" fill="#EDEDED"/>
<path d="M908.645 449.737H840.086L856.628 524.825H925.187L908.645 449.737Z" fill="#D77A00"/>
<path d="M921.864 474.514L914.837 442.657H894.665V449.737H908.644L925.186 524.825H932.964H1056.25V474.514H921.864Z" fill="url(#paint15_linear_61_1802)"/>
<path d="M894.665 442.547H826.106V449.737H894.665V442.547Z" fill="#FFE46B"/>
<path d="M956.179 517.627H931.371L923.466 481.704H948.266L956.179 517.627Z" fill="#F7C100"/>
<path d="M988.766 517.627H963.957L956.043 481.704H980.852L988.766 517.627Z" fill="#F7C100"/>
<path d="M1021.34 517.627H996.534L988.63 481.704H1013.44L1021.34 517.627Z" fill="#F7C100"/>
<path d="M1048.51 517.627H1029.12L1021.22 481.704H1048.51V517.627Z" fill="#F7C100"/>
<path d="M948.266 481.704H923.448L924.236 485.248H945.16L948.266 481.704Z" fill="#D77A00"/>
<path d="M956.179 517.627L948.266 481.704L945.16 485.248L951.507 514.091L956.179 517.627Z" fill="#FFE46B"/>
<path d="M980.852 481.704H956.035L956.813 485.248H977.747L980.852 481.704Z" fill="#D77A00"/>
<path d="M988.766 517.627L980.852 481.704L977.747 485.248L984.094 514.091L988.766 517.627Z" fill="#FFE46B"/>
<path d="M1013.44 481.704H988.612L989.4 485.248H1010.32L1013.44 481.704Z" fill="#D77A00"/>
<path d="M1021.34 517.627L1013.44 481.704L1010.32 485.248L1016.67 514.091L1021.34 517.627Z" fill="#FFE46B"/>
<path d="M1048.51 481.704H1046.02H1021.2L1021.98 485.248H1044.69L1048.51 481.704Z" fill="#D77A00"/>
<path d="M1048.51 481.704V517.627L1044.69 514.091V485.248L1048.51 481.704Z" fill="#FFE46B"/>
<path d="M835.577 467.451H773.147V498.441H835.577V467.451Z" fill="url(#paint16_linear_61_1802)"/>
<path d="M835.577 467.451H773.147V474.228H835.577V467.451Z" fill="#4F5180"/>
<path d="M822.566 521.155H786.159C785.009 521.155 784.076 520.288 784.076 519.219V517.366H824.648V519.219C824.648 520.288 823.716 521.155 822.566 521.155Z" fill="#706F6F"/>
<path d="M822.566 513.586H786.159C785.009 513.586 784.076 512.719 784.076 511.65V509.797H824.648V511.65C824.648 512.719 823.716 513.586 822.566 513.586Z" fill="#706F6F"/>
<path d="M952.675 531.906C943.259 531.906 935.626 540.215 935.626 550.469C935.626 560.724 943.259 569.033 952.675 569.033H962.988V531.914H952.675V531.906Z" fill="#575756"/>
<path d="M962.997 569.033C972.413 569.033 980.046 560.722 980.046 550.469C980.046 540.217 972.413 531.906 962.997 531.906C953.581 531.906 945.948 540.217 945.948 550.469C945.948 560.722 953.581 569.033 962.997 569.033Z" fill="#333332"/>
<path d="M962.997 560.698C968.188 560.698 972.395 556.119 972.395 550.469C972.395 544.82 968.188 540.24 962.997 540.24C957.806 540.24 953.599 544.82 953.599 550.469C953.599 556.119 957.806 560.698 962.997 560.698Z" fill="#706F6F"/>
<path d="M962.997 559.174C967.412 559.174 970.992 555.277 970.992 550.469C970.992 545.662 967.412 541.764 962.997 541.764C958.581 541.764 955.002 545.662 955.002 550.469C955.002 555.277 958.581 559.174 962.997 559.174Z" fill="#575756"/>
<path d="M913.995 531.906C904.579 531.906 896.946 540.215 896.946 550.469C896.946 560.724 904.579 569.033 913.995 569.033H924.308V531.914H913.995V531.906Z" fill="#575756"/>
<path d="M924.308 569.033C933.724 569.033 941.358 560.722 941.358 550.469C941.358 540.217 933.724 531.906 924.308 531.906C914.892 531.906 907.259 540.217 907.259 550.469C907.259 560.722 914.892 569.033 924.308 569.033Z" fill="#333332"/>
<path d="M924.308 560.698C929.499 560.698 933.707 556.119 933.707 550.469C933.707 544.82 929.499 540.24 924.308 540.24C919.118 540.24 914.91 544.82 914.91 550.469C914.91 556.119 919.118 560.698 924.308 560.698Z" fill="#706F6F"/>
<path d="M924.308 559.174C928.724 559.174 932.303 555.277 932.303 550.469C932.303 545.662 928.724 541.764 924.308 541.764C919.893 541.764 916.313 545.662 916.313 550.469C916.313 555.277 919.893 559.174 924.308 559.174Z" fill="#575756"/>
<path d="M1040.95 555.268H838.637C836.726 555.268 835.178 553.828 835.178 552.052V524.825H1040.95V555.268Z" fill="#333332"/>
<path d="M864.722 531.906C855.306 531.906 847.673 540.215 847.673 550.469C847.673 560.724 855.306 569.033 864.722 569.033H875.035V531.914H864.722V531.906Z" fill="#333332"/>
<path d="M875.035 569.033C884.451 569.033 892.084 560.722 892.084 550.469C892.084 540.217 884.451 531.906 875.035 531.906C865.619 531.906 857.986 540.217 857.986 550.469C857.986 560.722 865.619 569.033 875.035 569.033Z" fill="#575756"/>
<path d="M875.035 560.698C880.226 560.698 884.433 556.119 884.433 550.469C884.433 544.82 880.226 540.24 875.035 540.24C869.844 540.24 865.637 544.82 865.637 550.469C865.637 556.119 869.844 560.698 875.035 560.698Z" fill="#DADADA"/>
<path d="M875.035 559.174C879.45 559.174 883.03 555.277 883.03 550.469C883.03 545.662 879.45 541.764 875.035 541.764C870.619 541.764 867.04 545.662 867.04 550.469C867.04 555.277 870.619 559.174 875.035 559.174Z" fill="#878787"/>
<path d="M878.322 550.469C878.322 554.384 875.949 557.693 872.681 558.787C869.412 557.693 867.04 554.376 867.04 550.469C867.04 546.555 869.412 543.246 872.681 542.151C875.949 543.246 878.322 546.555 878.322 550.469Z" fill="#B2B2B2"/>
<path d="M874.736 550.469C874.736 553.121 872.762 555.268 870.336 555.268C869.466 555.268 868.651 554.99 867.963 554.51C867.375 553.306 867.049 551.934 867.049 550.469C867.049 549.013 867.375 547.632 867.963 546.428C868.651 545.948 869.466 545.671 870.336 545.671C872.762 545.671 874.736 547.826 874.736 550.469Z" fill="#878787"/>
<path d="M908.645 531.956C910.564 531.956 912.112 533.404 912.112 535.18V542.446C912.112 544.231 910.555 545.67 908.645 545.67H939.755C941.665 545.67 943.214 544.231 943.214 542.454V535.18C943.214 533.404 941.665 531.956 939.746 531.956H908.645Z" fill="#575756"/>
<path d="M875.107 528.016H898.096V460.05C898.096 458.274 896.548 456.834 894.637 456.834H842.105C840.194 456.834 838.646 458.274 838.646 460.05V545.679H854.889C856.908 535.585 865.157 528.016 875.035 528.016C875.062 528.008 875.08 528.016 875.107 528.016Z" fill="#C6C6C6"/>
<path d="M841.707 498.449L877.869 493.667C878.892 493.532 879.653 492.716 879.653 491.756V469.395C879.653 468.326 878.72 467.459 877.57 467.459H841.707V498.449Z" fill="#4F5180"/>
<path d="M838.646 524.825H770.078C768.168 524.825 766.62 526.265 766.62 528.041V545.67H838.646V524.825Z" fill="#706F6F"/>
<path d="M832.109 538.994H821.18V545.67H832.109V538.994Z" fill="white"/>
<path d="M832.109 531.906H821.18V535.45H832.109V531.906Z" fill="white"/>
<path d="M780.617 531.906H769.689V535.45H780.617V531.906Z" fill="white"/>
<path d="M780.617 538.994H769.689V545.67H780.617V538.994Z" fill="white"/>
<path d="M809.573 540.24H792.225V544.433H809.573V540.24Z" fill="#B2B2B2"/>
<path d="M1034.38 528.37H1044.69L1054.87 545.654H1044.56L1034.38 528.37Z" fill="#878787"/>
<path d="M1021.23 531.906C1011.82 531.906 1004.19 540.215 1004.19 550.469C1004.19 560.724 1011.82 569.033 1021.23 569.033H1031.55V531.914H1021.23V531.906Z" fill="#333332"/>
<path d="M1031.55 569.033C1040.96 569.033 1048.6 560.722 1048.6 550.469C1048.6 540.217 1040.96 531.906 1031.55 531.906C1022.13 531.906 1014.5 540.217 1014.5 550.469C1014.5 560.722 1022.13 569.033 1031.55 569.033Z" fill="#575756"/>
<path d="M1031.55 560.698C1036.74 560.698 1040.95 556.119 1040.95 550.469C1040.95 544.82 1036.74 540.24 1031.55 540.24C1026.36 540.24 1022.15 544.82 1022.15 550.469C1022.15 556.119 1026.36 560.698 1031.55 560.698Z" fill="#DADADA"/>
<path d="M1031.55 559.174C1035.96 559.174 1039.54 555.277 1039.54 550.469C1039.54 545.662 1035.96 541.764 1031.55 541.764C1027.13 541.764 1023.55 545.662 1023.55 550.469C1023.55 555.277 1027.13 559.174 1031.55 559.174Z" fill="#878787"/>
<path d="M1034.84 550.469C1034.84 554.384 1032.47 557.693 1029.2 558.787C1025.93 557.693 1023.56 554.376 1023.56 550.469C1023.56 546.555 1025.93 543.246 1029.2 542.151C1032.47 543.246 1034.84 546.555 1034.84 550.469Z" fill="#B2B2B2"/>
<path d="M1031.25 550.469C1031.25 553.121 1029.27 555.268 1026.85 555.268C1025.98 555.268 1025.16 554.99 1024.48 554.51C1023.89 553.306 1023.56 551.934 1023.56 550.469C1023.56 549.013 1023.89 547.632 1024.48 546.428C1025.16 545.948 1025.98 545.671 1026.85 545.671C1029.27 545.671 1031.25 547.826 1031.25 550.469Z" fill="#878787"/>
<path d="M982.555 531.906C973.138 531.906 965.505 540.215 965.505 550.469C965.505 560.724 973.138 569.033 982.555 569.033H992.867V531.914H982.555V531.906Z" fill="#333332"/>
<path d="M992.868 569.033C1002.28 569.033 1009.92 560.722 1009.92 550.469C1009.92 540.217 1002.28 531.906 992.868 531.906C983.452 531.906 975.818 540.217 975.818 550.469C975.818 560.722 983.452 569.033 992.868 569.033Z" fill="#575756"/>
<path d="M992.868 560.698C998.058 560.698 1002.27 556.119 1002.27 550.469C1002.27 544.82 998.058 540.24 992.868 540.24C987.677 540.24 983.469 544.82 983.469 550.469C983.469 556.119 987.677 560.698 992.868 560.698Z" fill="#DADADA"/>
<path d="M992.867 559.174C997.283 559.174 1000.86 555.277 1000.86 550.469C1000.86 545.662 997.283 541.764 992.867 541.764C988.452 541.764 984.873 545.662 984.873 550.469C984.873 555.277 988.452 559.174 992.867 559.174Z" fill="#878787"/>
<path d="M996.154 550.469C996.154 554.384 993.782 557.693 990.513 558.787C987.245 557.693 984.873 554.376 984.873 550.469C984.873 546.555 987.245 543.246 990.513 542.151C993.791 543.246 996.154 546.555 996.154 550.469Z" fill="#B2B2B2"/>
<path d="M992.568 550.469C992.568 553.121 990.595 555.268 988.168 555.268C987.299 555.268 986.484 554.99 985.796 554.51C985.207 553.306 984.881 551.934 984.881 550.469C984.881 549.013 985.207 547.632 985.796 546.428C986.484 545.948 987.299 545.671 988.168 545.671C990.595 545.671 992.568 547.826 992.568 550.469Z" fill="#878787"/>
<path d="M1047.16 524.825H1043.51H980.915H977.267L967.714 544.812L969.552 545.654L979.729 528.37H1044.69L1054.87 545.654L1056.71 544.812L1047.16 524.825Z" fill="#B2B2B2"/>
<path d="M966.954 524.825H977.266L967.714 544.812H957.401L966.954 524.825Z" fill="#878787"/>
<path d="M959.23 545.654H969.552L967.714 544.812H957.401L959.23 545.654Z" fill="#575756"/>
<path d="M898.096 528.008V524.817H838.655C836.736 524.817 835.178 526.265 835.178 528.05V545.671H854.889C856.908 535.568 865.166 528.008 875.035 528.008H898.096Z" fill="#575756"/>
<path d="M875.035 517.139C859.625 517.139 846.886 529.54 844.74 545.67H854.79C856.809 535.517 865.103 527.907 875.035 527.907C884.968 527.907 893.261 535.517 895.281 545.67H898.087C899.998 545.67 901.555 544.231 901.555 542.446V520.355C901.555 518.578 900.007 517.13 898.087 517.13H875.035V517.139Z" fill="#575756"/>
<path d="M767.009 474.228H759.041V491.983H767.009V474.228Z" fill="#EDEDED"/>
<path d="M852.734 474.228H844.767V491.983H852.734V474.228Z" fill="#EDEDED"/>
<path d="M1335.92 76.1819V542.589H1356.56V76.1819H1335.92ZM1338.21 78.3035H1354.28V107.938H1348.65V110.06H1354.28V125.054L1338.21 108.586V78.3035ZM1354.29 147.675V162.669L1338.61 146.615L1354.29 130.56V145.554H1348.65V147.675H1354.29ZM1354.29 185.283V200.277L1338.61 184.222L1354.29 168.167V183.161H1348.65V185.283H1354.29ZM1354.29 222.898V237.892L1338.61 221.837L1354.29 205.783V220.777H1348.65V222.898H1354.29ZM1354.29 260.505V275.5L1338.61 259.445L1354.29 243.39V258.384H1348.65V260.505H1354.29ZM1354.29 298.121V313.115L1338.61 297.06L1354.29 281.005V296H1348.65V298.121H1354.29ZM1354.29 335.728V350.722L1338.61 334.668L1354.29 318.613V333.607H1348.65V335.728H1354.29ZM1354.29 373.344V388.338L1338.61 372.283L1354.29 356.228V371.222H1348.65V373.344H1354.29ZM1354.29 410.951V425.945L1338.61 409.891L1354.29 393.836V408.83H1348.65V410.951H1354.29ZM1354.29 448.567V463.561L1338.61 447.506L1354.29 431.451V446.445H1348.65V448.567H1354.29ZM1354.29 486.174V501.168L1338.61 485.113L1354.29 469.059V484.053H1348.65V486.174H1354.29ZM1338.21 111.752L1352.85 126.746H1348.65V128.867H1352.85L1338.21 143.862V111.752ZM1338.21 149.359L1352.85 164.353H1348.65V166.475H1352.85L1338.21 181.469V149.359ZM1338.21 186.975L1352.85 201.969H1348.65V204.09H1352.85L1338.21 219.084V186.975ZM1338.21 224.582L1352.85 239.576H1348.65V241.698H1352.85L1338.21 256.692V224.582ZM1338.21 262.198L1352.85 277.192H1348.65V279.313H1352.85L1338.21 294.307V262.198ZM1338.21 299.805L1352.85 314.799H1348.65V316.921H1352.85L1338.21 331.915V299.805ZM1338.21 337.412L1352.85 352.406H1348.65V354.528H1352.85L1338.21 369.522V337.412ZM1338.21 375.028L1352.85 390.022H1348.65V392.143H1352.85L1338.21 407.138V375.028ZM1338.21 412.635L1352.85 427.629H1348.65V429.751H1352.85L1338.21 444.745V412.635ZM1338.21 450.251L1352.85 465.245H1348.65V467.366H1352.85L1338.21 482.36V450.251ZM1338.21 487.858L1352.85 502.852H1348.65V504.974H1352.85L1338.21 519.968V487.858ZM1354.29 506.666V521.66H1348.65V523.781H1354.29V538.784L1339.65 523.79L1338.21 523.411V523.142L1354.29 506.666ZM1338.21 540.468V525.474L1352.85 540.468H1338.21Z" fill="#C27B1B"/>
<path d="M1343 0.779521L1279.33 64.1L1280.04 64.721L1343.71 1.40053L1343 0.779521Z" fill="#5B5F99"/>
<path d="M1343.49 0.695167L1343.09 1.52368L1493.77 64.8586L1494.17 64.0301L1343.49 0.695167Z" fill="#5B5F99"/>
<path d="M1276.27 90.059H1283.05V64.4318H1276.27V90.059Z" fill="#788ACC"/>
<path d="M1225.64 90.059H1276.28V64.4318H1225.64V90.059Z" fill="#C3D0F2"/>
<path d="M1502.4 146.985L1501.83 146.244L1531.76 126.931L1546.42 146.353L1545.61 146.875L1531.52 128.194L1502.4 146.985Z" fill="#788ACC"/>
<path d="M1560.89 146.985L1531.76 128.194L1517.67 146.875L1516.86 146.353L1531.52 126.931L1531.92 127.183L1561.44 146.244L1560.89 146.985Z" fill="#5B5F99"/>
<path d="M1546.01 146.615H1502.12V153.063H1546.01V146.615Z" fill="#B2B2B2"/>
<path d="M1546.02 153.063H1561.17V146.614H1546.02V153.063Z" fill="#878787"/>
<path d="M1531.64 129.928C1529.29 129.928 1527.37 128.143 1527.37 125.954H1529.32C1529.32 127.142 1530.36 128.11 1531.64 128.11C1532.92 128.11 1533.96 127.142 1533.96 125.954C1533.96 125.315 1533.63 124.818 1533.36 124.506C1533.23 124.363 1533 124.178 1532.75 123.993C1531.92 123.345 1530.67 122.376 1530.67 120.634H1532.63C1532.63 121.459 1533.17 121.947 1534.01 122.595C1534.33 122.839 1534.63 123.075 1534.87 123.345C1535.56 124.119 1535.92 125.02 1535.92 125.954C1535.91 128.143 1533.99 129.928 1531.64 129.928Z" fill="#5B5F99"/>
<path d="M1522.16 109.832V115.523L1531.64 121.223L1541.12 115.523V109.832H1522.16Z" fill="#788ACC"/>
<path d="M1524.22 82.9423H1523.24V109.832H1524.22V82.9423Z" fill="#5B5F99"/>
<path d="M1540.04 82.9423H1539.07V109.832H1540.04V82.9423Z" fill="#5B5F99"/>
<path d="M1586.31 76.4343L1570.03 63.6207C1570.01 63.6123 1569.99 63.6039 1569.99 63.5871C1569.95 63.5618 1569.92 63.545 1569.89 63.5197C1569.86 63.5029 1569.82 63.486 1569.79 63.4692C1569.75 63.4524 1569.72 63.4439 1569.69 63.4271C1569.65 63.4103 1569.61 63.4018 1569.57 63.3934C1569.55 63.385 1569.53 63.385 1569.51 63.3766C1569.5 63.3766 1569.49 63.3766 1569.47 63.3766C1569.42 63.3682 1569.39 63.3682 1569.34 63.3682C1569.31 63.3682 1569.28 63.3682 1569.24 63.3682C1569.2 63.3682 1569.16 63.3766 1569.13 63.385C1569.09 63.3934 1569.06 63.3934 1569.03 63.4018C1568.99 63.4103 1568.95 63.4187 1568.92 63.4355C1568.88 63.4439 1568.85 63.4608 1568.83 63.4692C1568.79 63.486 1568.76 63.5029 1568.73 63.5197C1568.69 63.5365 1568.66 63.5534 1568.64 63.5786C1568.61 63.5955 1568.58 63.6207 1568.55 63.6376C1568.52 63.6628 1568.49 63.6881 1568.46 63.7218C1568.46 63.7302 1568.45 63.7386 1568.44 63.747C1568.43 63.7639 1568.42 63.7723 1568.41 63.7891C1568.38 63.8228 1568.36 63.8565 1568.34 63.8901C1568.32 63.9154 1568.3 63.9491 1568.29 63.9743C1568.27 64.008 1568.26 64.0417 1568.25 64.0754C1568.24 64.109 1568.22 64.1427 1568.21 64.1764C1568.2 64.1932 1568.2 64.2101 1568.19 64.2269L1565.89 75.2557L1551.23 63.6207C1551.21 63.6123 1551.2 63.6039 1551.18 63.5871C1551.14 63.5618 1551.12 63.545 1551.08 63.5197C1551.05 63.5029 1551.02 63.486 1550.98 63.4692C1550.94 63.4524 1550.92 63.4439 1550.88 63.4271C1550.84 63.4103 1550.8 63.4018 1550.76 63.3934C1550.75 63.385 1550.73 63.385 1550.71 63.3766C1550.69 63.3766 1550.68 63.3766 1550.66 63.3682C1550.63 63.3597 1550.58 63.3597 1550.55 63.3597C1550.51 63.3597 1550.47 63.3597 1550.44 63.3597C1550.4 63.3597 1550.36 63.3682 1550.33 63.3682C1550.29 63.3766 1550.26 63.3766 1550.22 63.385C1550.18 63.3934 1550.15 63.4018 1550.12 63.4103C1550.08 63.4187 1550.05 63.4355 1550.02 63.4439C1549.98 63.4608 1549.96 63.4776 1549.92 63.4945C1549.89 63.5113 1549.86 63.5281 1549.83 63.545C1549.8 63.5618 1549.78 63.587 1549.75 63.6123C1549.72 63.6376 1549.69 63.6628 1549.67 63.6881C1549.66 63.6965 1549.64 63.7049 1549.63 63.7218C1549.62 63.7386 1549.61 63.7554 1549.6 63.7638C1549.57 63.7975 1549.55 63.8228 1549.52 63.8565C1549.5 63.8901 1549.49 63.9154 1549.47 63.9491C1549.45 63.9827 1549.44 64.008 1549.42 64.0417C1549.41 64.0754 1549.4 64.1175 1549.39 64.1511C1549.39 64.168 1549.38 64.1848 1549.37 64.2016L1546.96 75.2388L1532.41 63.6039C1532.39 63.5955 1532.38 63.587 1532.37 63.5786C1532.33 63.5534 1532.3 63.5365 1532.27 63.5113C1532.24 63.4944 1532.2 63.4776 1532.17 63.4608C1532.14 63.4439 1532.11 63.4355 1532.08 63.4187C1532.04 63.4018 1532 63.3934 1531.96 63.385C1531.94 63.3766 1531.92 63.3766 1531.9 63.3682C1531.89 63.3682 1531.87 63.3682 1531.85 63.3597C1531.81 63.3513 1531.77 63.3513 1531.73 63.3513C1531.69 63.3513 1531.66 63.3513 1531.62 63.3513C1531.59 63.3513 1531.55 63.3597 1531.51 63.3597C1531.48 63.3682 1531.44 63.3682 1531.41 63.3766C1531.37 63.385 1531.33 63.3934 1531.3 63.4103C1531.27 63.4187 1531.23 63.4271 1531.21 63.4439C1531.17 63.4608 1531.13 63.4776 1531.1 63.4945C1531.07 63.5113 1531.04 63.5281 1531.02 63.545C1530.98 63.5618 1530.95 63.587 1530.93 63.6123C1530.9 63.6376 1530.87 63.6544 1530.84 63.6797C1530.83 63.6881 1530.82 63.7049 1530.81 63.7133C1530.8 63.7302 1530.79 63.7386 1530.77 63.7554C1530.74 63.7807 1530.73 63.8144 1530.71 63.848C1530.69 63.8817 1530.67 63.907 1530.65 63.9407C1530.64 63.9743 1530.63 63.9996 1530.61 64.0333C1530.59 64.0669 1530.58 64.109 1530.57 64.1427C1530.56 64.1595 1530.56 64.1764 1530.55 64.1932L1528.03 75.2472L1513.59 63.6123C1513.58 63.6039 1513.56 63.5955 1513.54 63.5871C1513.51 63.5618 1513.48 63.545 1513.44 63.5197C1513.41 63.5029 1513.38 63.486 1513.34 63.4692C1513.31 63.4524 1513.28 63.4439 1513.24 63.4271C1513.21 63.4103 1513.16 63.4018 1513.12 63.3934C1513.11 63.3934 1513.1 63.385 1513.08 63.3766C1513.06 63.3766 1513.04 63.3766 1513.03 63.3682C1512.98 63.3597 1512.94 63.3597 1512.9 63.3513C1512.86 63.3513 1512.83 63.3513 1512.79 63.3513C1512.75 63.3513 1512.72 63.3513 1512.68 63.3597C1512.64 63.3682 1512.61 63.3682 1512.57 63.3766C1512.54 63.385 1512.51 63.3934 1512.47 63.4018C1512.44 63.4103 1512.4 63.4271 1512.36 63.4355C1512.34 63.4524 1512.3 63.4608 1512.27 63.4776C1512.24 63.4944 1512.2 63.5113 1512.17 63.5365C1512.15 63.5534 1512.12 63.5702 1512.09 63.5955C1512.06 63.6207 1512.03 63.646 1512 63.6797C1511.99 63.6881 1511.97 63.6965 1511.97 63.7133C1511.96 63.7217 1511.95 63.7386 1511.94 63.747C1511.91 63.7807 1511.88 63.8144 1511.87 63.848C1511.85 63.8733 1511.83 63.907 1511.81 63.9322C1511.79 63.9659 1511.78 63.9911 1511.77 64.0248C1511.75 64.0585 1511.74 64.0922 1511.73 64.1343C1511.73 64.1511 1511.72 64.1595 1511.71 64.1764L1509.08 75.2388L1494.75 63.6039C1494.74 63.5955 1494.73 63.587 1494.72 63.5786C1494.69 63.5534 1494.65 63.5365 1494.62 63.5113C1494.59 63.4944 1494.55 63.4776 1494.53 63.4608C1494.49 63.4439 1494.46 63.4355 1494.43 63.4187C1494.39 63.4018 1494.35 63.3934 1494.31 63.385C1494.29 63.385 1494.28 63.3766 1494.26 63.3682C1494.25 63.3682 1494.23 63.3682 1494.21 63.3597C1494.17 63.3513 1494.13 63.3513 1494.09 63.3429C1494.06 63.3429 1494.02 63.3429 1493.98 63.3429C1493.95 63.3429 1493.91 63.3429 1493.88 63.3513C1493.85 63.3597 1493.8 63.3597 1493.77 63.3682C1493.74 63.3766 1493.7 63.385 1493.68 63.3934C1493.64 63.4018 1493.6 63.4187 1493.56 63.4355C1493.53 63.4439 1493.5 63.4608 1493.47 63.4776C1493.43 63.4944 1493.4 63.5197 1493.36 63.5365C1493.33 63.5534 1493.3 63.5702 1493.29 63.5871C1493.25 63.6123 1493.22 63.6376 1493.19 63.6712C1493.18 63.6797 1493.16 63.6881 1493.15 63.7049C1493.14 63.7133 1493.13 63.7302 1493.12 63.7386C1493.1 63.7723 1493.07 63.8059 1493.05 63.8396C1493.03 63.8649 1493.02 63.8985 1493 63.9238C1492.98 63.9575 1492.97 63.9827 1492.95 64.0164C1492.93 64.0501 1492.92 64.0838 1492.92 64.1259C1492.92 64.1427 1492.91 64.1511 1492.9 64.168L1490.15 75.2472L1475.94 63.6123C1475.93 63.6039 1475.91 63.5955 1475.9 63.5871C1475.88 63.5618 1475.84 63.545 1475.8 63.5197C1475.78 63.5029 1475.74 63.486 1475.7 63.4692C1475.68 63.4524 1475.64 63.4439 1475.6 63.4271C1475.57 63.4103 1475.52 63.4018 1475.49 63.385C1475.47 63.385 1475.46 63.3766 1475.44 63.3682C1475.42 63.3597 1475.4 63.3682 1475.39 63.3597C1475.35 63.3513 1475.31 63.3513 1475.27 63.3429C1475.23 63.3429 1475.2 63.3429 1475.16 63.3429C1475.12 63.3429 1475.09 63.3429 1475.06 63.3513C1475.02 63.3513 1474.98 63.3597 1474.94 63.3682C1474.91 63.3766 1474.88 63.385 1474.84 63.3934C1474.81 63.4018 1474.77 63.4187 1474.73 63.4271C1474.7 63.4439 1474.67 63.4524 1474.64 63.4692C1474.61 63.486 1474.58 63.5029 1474.54 63.5281C1474.52 63.545 1474.49 63.5618 1474.46 63.5871C1474.44 63.6123 1474.4 63.6376 1474.37 63.6628C1474.36 63.6797 1474.35 63.6881 1474.33 63.6965C1474.32 63.7049 1474.31 63.7218 1474.3 63.7302C1474.27 63.7554 1474.25 63.7891 1474.23 63.8228C1474.21 63.848 1474.19 63.8817 1474.17 63.907C1474.16 63.9322 1474.15 63.9659 1474.13 63.9996C1474.11 64.0332 1474.1 64.0753 1474.08 64.109C1474.08 64.1259 1474.07 64.1343 1474.06 64.1511L1471.2 75.2388L1457.11 63.6039C1457.1 63.5955 1457.08 63.587 1457.07 63.5786C1457.04 63.5534 1457.01 63.5365 1456.97 63.5113C1456.94 63.4944 1456.91 63.4776 1456.88 63.4608C1456.84 63.4439 1456.82 63.4355 1456.78 63.4187C1456.74 63.4018 1456.71 63.3934 1456.67 63.385C1456.65 63.385 1456.64 63.3766 1456.63 63.3682C1456.61 63.3597 1456.59 63.3597 1456.56 63.3597C1456.53 63.3513 1456.48 63.3429 1456.45 63.3429C1456.41 63.3429 1456.37 63.3429 1456.34 63.3429C1456.3 63.3429 1456.25 63.3429 1456.22 63.3513C1456.18 63.3513 1456.16 63.3597 1456.12 63.3682C1456.08 63.3766 1456.04 63.385 1456 63.3934C1455.97 63.4018 1455.94 63.4103 1455.91 63.4271C1455.87 63.4439 1455.84 63.4608 1455.8 63.4776C1455.78 63.4944 1455.75 63.5113 1455.72 63.5197C1455.68 63.5365 1455.66 63.5618 1455.62 63.5871C1455.59 63.6123 1455.57 63.6292 1455.54 63.6544C1455.52 63.6713 1455.5 63.6797 1455.49 63.6965C1455.49 63.7049 1455.48 63.7218 1455.47 63.7302C1455.44 63.7554 1455.42 63.7891 1455.39 63.8228C1455.38 63.848 1455.36 63.8817 1455.34 63.907C1455.32 63.9322 1455.31 63.9659 1455.3 63.9996C1455.28 64.0332 1455.27 64.0669 1455.25 64.109C1455.25 64.1259 1455.24 64.1343 1455.23 64.1511L1452.25 75.2557L1438.27 63.6207C1438.26 63.6123 1438.26 63.6039 1438.24 63.5955C1438.2 63.5702 1438.17 63.545 1438.14 63.5281C1438.11 63.5113 1438.07 63.4944 1438.05 63.4776C1438.02 63.4608 1437.98 63.4524 1437.95 63.4355C1437.91 63.4187 1437.87 63.4102 1437.83 63.3934C1437.82 63.3934 1437.8 63.385 1437.79 63.3766C1437.78 63.3682 1437.76 63.3682 1437.73 63.3682C1437.69 63.3597 1437.65 63.3513 1437.61 63.3513C1437.58 63.3513 1437.54 63.3429 1437.5 63.3513C1437.47 63.3513 1437.43 63.3513 1437.4 63.3597C1437.37 63.3597 1437.32 63.3682 1437.29 63.3766C1437.25 63.385 1437.22 63.3934 1437.2 63.4018C1437.16 63.4103 1437.12 63.4271 1437.08 63.4439C1437.05 63.4524 1437.01 63.4692 1436.99 63.486C1436.95 63.5029 1436.92 63.5197 1436.88 63.545C1436.85 63.5618 1436.82 63.5786 1436.8 63.5955C1436.76 63.6207 1436.73 63.646 1436.7 63.6797C1436.69 63.6881 1436.67 63.7049 1436.65 63.7133C1436.64 63.7217 1436.63 63.7302 1436.63 63.7386C1436.61 63.7723 1436.58 63.7975 1436.56 63.8312C1436.54 63.8565 1436.53 63.8817 1436.51 63.9154C1436.49 63.9491 1436.48 63.9743 1436.46 64.008C1436.44 64.0417 1436.44 64.0754 1436.42 64.1174C1436.42 64.1259 1436.41 64.1427 1436.4 64.1511L1433.31 75.2725L1419.45 63.6376C1419.44 63.6291 1419.43 63.6207 1419.42 63.6207C1419.39 63.5955 1419.36 63.5702 1419.32 63.5534C1419.3 63.5365 1419.27 63.5197 1419.23 63.5029C1419.2 63.486 1419.17 63.4692 1419.13 63.4608C1419.1 63.4439 1419.06 63.4355 1419.02 63.4187C1419.01 63.4187 1419 63.4103 1418.99 63.4018C1418.97 63.3934 1418.94 63.3934 1418.92 63.3934C1418.89 63.385 1418.85 63.3766 1418.81 63.3766C1418.77 63.3766 1418.73 63.3682 1418.7 63.3682C1418.66 63.3682 1418.63 63.3682 1418.59 63.3682C1418.55 63.3682 1418.52 63.3766 1418.48 63.385C1418.44 63.3934 1418.41 63.4018 1418.37 63.4103C1418.34 63.4187 1418.3 63.4271 1418.27 63.4439C1418.24 63.4608 1418.2 63.4692 1418.17 63.486C1418.14 63.5029 1418.11 63.5197 1418.08 63.5365C1418.06 63.5534 1418.02 63.5786 1417.99 63.5955C1417.96 63.6207 1417.93 63.646 1417.9 63.6712C1417.88 63.6881 1417.86 63.6965 1417.86 63.7133C1417.85 63.7217 1417.84 63.7302 1417.83 63.747C1417.8 63.7723 1417.78 63.8059 1417.76 63.8396C1417.74 63.8649 1417.71 63.8985 1417.7 63.9238C1417.68 63.9491 1417.67 63.9827 1417.66 64.0164C1417.64 64.0501 1417.62 64.0838 1417.61 64.1259C1417.61 64.1343 1417.6 64.1511 1417.59 64.1595L1414.39 75.2893L1400.63 63.646C1400.63 63.6376 1400.62 63.6291 1400.61 63.6291C1400.58 63.6039 1400.54 63.5871 1400.51 63.5618C1400.48 63.545 1400.44 63.5197 1400.42 63.5029C1400.39 63.486 1400.35 63.4776 1400.33 63.4608C1400.29 63.4439 1400.25 63.4271 1400.21 63.4187C1400.2 63.4187 1400.19 63.4103 1400.17 63.4103C1400.15 63.4018 1400.14 63.4018 1400.11 63.4018C1400.06 63.3934 1400.03 63.385 1399.98 63.385C1399.95 63.385 1399.91 63.3766 1399.87 63.3766C1399.84 63.3766 1399.8 63.3766 1399.77 63.3766C1399.73 63.3766 1399.69 63.385 1399.66 63.3934C1399.62 63.4018 1399.58 63.4102 1399.55 63.4187C1399.51 63.4271 1399.48 63.4355 1399.45 63.4523C1399.41 63.4692 1399.38 63.4776 1399.34 63.4945C1399.31 63.5113 1399.28 63.5281 1399.25 63.545C1399.21 63.5618 1399.19 63.587 1399.16 63.6039C1399.13 63.6291 1399.1 63.6544 1399.07 63.6797C1399.05 63.6965 1399.03 63.7049 1399.01 63.7218C1399 63.7302 1399 63.7386 1398.99 63.747C1398.96 63.7723 1398.94 63.8059 1398.91 63.8312C1398.9 63.8565 1398.87 63.8901 1398.85 63.9154C1398.83 63.9407 1398.82 63.9743 1398.81 63.9996C1398.79 64.0332 1398.77 64.0753 1398.76 64.109C1398.76 64.1174 1398.75 64.1259 1398.75 64.1427L1395.44 75.2809L1381.8 63.6376C1381.79 63.6291 1381.78 63.6292 1381.77 63.6207C1381.75 63.5955 1381.71 63.5702 1381.68 63.5534C1381.65 63.5365 1381.62 63.5197 1381.58 63.5029C1381.56 63.486 1381.52 63.4776 1381.48 63.4608C1381.45 63.4439 1381.41 63.4271 1381.37 63.4187C1381.36 63.4187 1381.35 63.4103 1381.34 63.4103C1381.32 63.4018 1381.29 63.4018 1381.28 63.4018C1381.23 63.3934 1381.2 63.385 1381.15 63.385C1381.11 63.385 1381.08 63.3766 1381.04 63.3766C1381.01 63.3766 1380.97 63.3766 1380.92 63.3766C1380.89 63.3766 1380.85 63.385 1380.81 63.3934C1380.78 63.4018 1380.74 63.4102 1380.71 63.4187C1380.67 63.4271 1380.64 63.4355 1380.61 63.4523C1380.57 63.4692 1380.53 63.4776 1380.5 63.4945C1380.47 63.5113 1380.43 63.5281 1380.41 63.545C1380.38 63.5618 1380.34 63.5786 1380.32 63.6039C1380.28 63.6291 1380.25 63.6544 1380.23 63.6797C1380.21 63.6965 1380.19 63.7049 1380.17 63.7218C1380.16 63.7302 1380.16 63.7386 1380.15 63.747C1380.13 63.7723 1380.1 63.8059 1380.08 63.8396C1380.06 63.8649 1380.05 63.8901 1380.03 63.9238C1380.01 63.9491 1380 63.9827 1379.98 64.0164C1379.96 64.0501 1379.95 64.0838 1379.94 64.1259C1379.94 64.1343 1379.93 64.1427 1379.93 64.1595L1376.5 75.3146L1362.98 63.6712C1362.52 63.2756 1361.79 63.3008 1361.37 63.7302C1360.94 64.1595 1360.97 64.8331 1361.43 65.2287L1376.31 78.0423C1376.32 78.0507 1376.33 78.0592 1376.34 78.0676C1376.37 78.0928 1376.4 78.1097 1376.43 78.1265C1376.46 78.1433 1376.5 78.1686 1376.52 78.1854C1376.55 78.2023 1376.58 78.2107 1376.61 78.2275C1376.65 78.2444 1376.7 78.2612 1376.73 78.2696C1376.75 78.278 1376.76 78.278 1376.78 78.2865C1376.8 78.2949 1376.82 78.2949 1376.85 78.3033C1376.87 78.3033 1376.89 78.3117 1376.9 78.3117C1376.97 78.3201 1377.03 78.3286 1377.09 78.3286C1377.17 78.3286 1377.24 78.3201 1377.3 78.3117C1377.32 78.3117 1377.34 78.3033 1377.37 78.2949C1377.41 78.2865 1377.46 78.2696 1377.51 78.2528C1377.54 78.2444 1377.56 78.236 1377.58 78.2275C1377.63 78.2107 1377.67 78.1854 1377.72 78.1602C1377.74 78.1518 1377.75 78.1433 1377.77 78.1265C1377.83 78.0844 1377.88 78.0423 1377.94 77.9918L1377.94 77.9834C1377.95 77.975 1377.96 77.9665 1377.97 77.9581C1378.01 77.9245 1378.04 77.8823 1378.07 77.8403C1378.09 77.8234 1378.1 77.7982 1378.11 77.7813C1378.13 77.7477 1378.14 77.714 1378.16 77.6719C1378.17 77.6466 1378.18 77.6214 1378.19 77.5961C1378.19 77.5877 1378.2 77.5709 1378.21 77.5624L1381.64 66.399L1395.28 78.0507C1395.29 78.0591 1395.3 78.0676 1395.32 78.076C1395.35 78.1012 1395.37 78.1181 1395.41 78.1349C1395.44 78.1518 1395.47 78.177 1395.51 78.1939C1395.54 78.2107 1395.56 78.2191 1395.6 78.2359C1395.64 78.2528 1395.68 78.2696 1395.72 78.2781C1395.74 78.2865 1395.75 78.2865 1395.76 78.2949C1395.78 78.3033 1395.81 78.3033 1395.83 78.3033C1395.84 78.3033 1395.86 78.3117 1395.88 78.3117C1395.94 78.3201 1396.01 78.3286 1396.06 78.3286C1396.13 78.3286 1396.21 78.3201 1396.27 78.3117C1396.29 78.3117 1396.31 78.3033 1396.33 78.2949C1396.38 78.2865 1396.43 78.2696 1396.48 78.2528C1396.51 78.2444 1396.52 78.236 1396.55 78.2275C1396.6 78.2107 1396.64 78.1854 1396.69 78.1602C1396.71 78.1518 1396.72 78.1433 1396.74 78.1265C1396.8 78.0844 1396.86 78.0423 1396.9 77.9918C1396.9 77.9918 1396.91 77.9918 1396.91 77.9834C1396.92 77.975 1396.93 77.9665 1396.94 77.9581C1396.98 77.9245 1397 77.8823 1397.04 77.8403C1397.06 77.8234 1397.07 77.7982 1397.08 77.7813C1397.09 77.7477 1397.11 77.714 1397.13 77.6719C1397.14 77.6466 1397.15 77.6214 1397.16 77.5961C1397.16 77.5793 1397.17 77.5708 1397.18 77.554L1400.5 66.4074L1414.26 78.0592C1414.27 78.0676 1414.29 78.076 1414.3 78.0844C1414.32 78.1097 1414.35 78.1265 1414.39 78.1433C1414.42 78.1602 1414.45 78.1854 1414.49 78.2023C1414.51 78.2191 1414.54 78.2275 1414.57 78.2444C1414.61 78.2612 1414.65 78.278 1414.7 78.2865C1414.71 78.2949 1414.72 78.2949 1414.74 78.3033C1414.76 78.3117 1414.78 78.3117 1414.8 78.3117C1414.81 78.3117 1414.83 78.3201 1414.85 78.3201C1414.91 78.3286 1414.98 78.337 1415.03 78.337C1415.1 78.337 1415.18 78.3286 1415.24 78.3201C1415.26 78.3201 1415.28 78.3117 1415.29 78.3033C1415.34 78.2949 1415.39 78.278 1415.44 78.2612C1415.47 78.2528 1415.48 78.2444 1415.51 78.2359C1415.56 78.2191 1415.6 78.1939 1415.65 78.1686C1415.66 78.1602 1415.68 78.1518 1415.7 78.1349C1415.76 78.0928 1415.82 78.0507 1415.86 78.0002C1415.86 78.0002 1415.87 78.0002 1415.87 77.9918C1415.88 77.9834 1415.89 77.975 1415.9 77.9666C1415.94 77.9245 1415.96 77.8908 1416 77.8487C1416.02 77.8318 1416.03 77.8066 1416.04 77.7897C1416.05 77.7561 1416.07 77.7224 1416.09 77.6803C1416.1 77.655 1416.11 77.6298 1416.12 77.6045C1416.13 77.5877 1416.13 77.5793 1416.14 77.5624L1419.34 66.4242L1433.22 78.076C1433.23 78.0844 1433.25 78.0928 1433.26 78.1012C1433.28 78.1265 1433.31 78.1433 1433.35 78.1602C1433.38 78.177 1433.41 78.2023 1433.45 78.2191C1433.47 78.236 1433.5 78.2444 1433.54 78.2612C1433.57 78.278 1433.62 78.2949 1433.66 78.3033C1433.68 78.3117 1433.69 78.3117 1433.71 78.3201C1433.73 78.3286 1433.75 78.3286 1433.76 78.3286C1433.78 78.3286 1433.8 78.337 1433.82 78.337C1433.88 78.3454 1433.94 78.3538 1434 78.3538C1434.07 78.3538 1434.14 78.3454 1434.22 78.337C1434.23 78.337 1434.25 78.3286 1434.28 78.3201C1434.33 78.3117 1434.38 78.2949 1434.43 78.2781C1434.45 78.2696 1434.47 78.2612 1434.5 78.2528C1434.54 78.236 1434.59 78.2107 1434.63 78.1854C1434.65 78.177 1434.67 78.1686 1434.69 78.1517C1434.75 78.1097 1434.81 78.0676 1434.85 78.0171C1434.85 78.0171 1434.86 78.0171 1434.86 78.0086C1434.87 78.0002 1434.88 77.9918 1434.89 77.975C1434.92 77.9329 1434.95 77.8992 1434.99 77.8571C1435 77.8403 1435.01 77.815 1435.02 77.7897C1435.04 77.7561 1435.06 77.7224 1435.08 77.6803C1435.09 77.655 1435.1 77.6298 1435.1 77.6045C1435.11 77.5877 1435.11 77.5793 1435.12 77.5624L1438.21 66.4411L1452.21 78.0928C1452.22 78.1013 1452.23 78.1097 1452.24 78.1181C1452.27 78.1349 1452.3 78.1602 1452.33 78.177C1452.36 78.1939 1452.39 78.2191 1452.43 78.2359C1452.45 78.2528 1452.48 78.2612 1452.51 78.2781C1452.54 78.2949 1452.59 78.3117 1452.63 78.3201C1452.65 78.3286 1452.67 78.337 1452.69 78.337C1452.7 78.337 1452.71 78.337 1452.71 78.337C1452.8 78.3538 1452.88 78.3622 1452.96 78.3622C1452.96 78.3622 1452.96 78.3622 1452.97 78.3622C1453.04 78.3622 1453.11 78.3538 1453.19 78.3454C1453.2 78.3454 1453.22 78.337 1453.24 78.3286C1453.29 78.3201 1453.34 78.3033 1453.38 78.2865C1453.41 78.278 1453.43 78.2696 1453.46 78.2612C1453.5 78.2444 1453.55 78.2191 1453.59 78.1854C1453.61 78.177 1453.63 78.1686 1453.65 78.1517C1453.71 78.1097 1453.77 78.0676 1453.81 78.0171C1453.81 78.0171 1453.81 78.0171 1453.82 78.0086C1453.83 78.0002 1453.83 77.9918 1453.84 77.9834C1453.87 77.9413 1453.91 77.8992 1453.94 77.8571C1453.95 77.8403 1453.96 77.815 1453.97 77.7982C1453.99 77.7645 1454.01 77.7224 1454.03 77.6887C1454.04 77.6635 1454.05 77.6382 1454.05 77.613C1454.06 77.5961 1454.06 77.5793 1454.07 77.5624L1457.05 66.4495L1471.16 78.1012C1471.17 78.1097 1471.19 78.1181 1471.2 78.1265C1471.23 78.1433 1471.26 78.1686 1471.28 78.1854C1471.32 78.2023 1471.35 78.2275 1471.38 78.2444C1471.41 78.2612 1471.44 78.2696 1471.47 78.2781C1471.51 78.2949 1471.55 78.3117 1471.59 78.3201C1471.61 78.3286 1471.63 78.3285 1471.65 78.337C1471.66 78.337 1471.67 78.337 1471.67 78.337C1471.76 78.3538 1471.83 78.3622 1471.91 78.3622C1471.91 78.3622 1471.91 78.3622 1471.92 78.3622C1471.99 78.3622 1472.06 78.3538 1472.14 78.337C1472.15 78.337 1472.17 78.3286 1472.19 78.3201C1472.24 78.3117 1472.29 78.2949 1472.34 78.2781C1472.36 78.2696 1472.38 78.2612 1472.41 78.2528C1472.45 78.2275 1472.5 78.2107 1472.54 78.177C1472.56 78.1686 1472.58 78.1602 1472.6 78.1433C1472.66 78.1013 1472.72 78.0591 1472.76 78.0002C1472.76 78.0002 1472.76 78.0002 1472.77 77.9918C1472.78 77.9834 1472.79 77.975 1472.79 77.9666C1472.82 77.9245 1472.86 77.8823 1472.89 77.8403C1472.91 77.815 1472.91 77.7982 1472.92 77.7729C1472.94 77.7392 1472.96 77.7056 1472.98 77.6635C1472.99 77.6382 1473 77.6129 1473.01 77.5793C1473.01 77.5624 1473.01 77.5456 1473.02 77.5288L1475.88 66.4326L1490.11 78.0844C1490.13 78.0928 1490.14 78.1013 1490.15 78.1181C1490.18 78.1349 1490.21 78.1518 1490.24 78.1686C1490.27 78.1939 1490.31 78.2107 1490.34 78.2275C1490.37 78.2444 1490.4 78.2528 1490.43 78.2612C1490.47 78.278 1490.52 78.2949 1490.56 78.3033C1490.58 78.3117 1490.6 78.3117 1490.62 78.3201C1490.62 78.3201 1490.63 78.3201 1490.63 78.3201C1490.71 78.337 1490.79 78.3454 1490.86 78.3454H1490.87C1490.94 78.3454 1491.01 78.337 1491.09 78.3201C1491.1 78.3201 1491.12 78.3117 1491.14 78.3033C1491.2 78.2949 1491.24 78.278 1491.29 78.2612C1491.32 78.2528 1491.34 78.2444 1491.37 78.2359C1491.41 78.2107 1491.46 78.1938 1491.5 78.1602C1491.52 78.1518 1491.54 78.1349 1491.56 78.1265C1491.62 78.0844 1491.68 78.0423 1491.72 77.9834C1491.72 77.9834 1491.72 77.9834 1491.73 77.975C1491.74 77.9665 1491.75 77.9581 1491.76 77.9413C1491.79 77.8992 1491.82 77.8571 1491.86 77.815C1491.87 77.7897 1491.88 77.7729 1491.89 77.7477C1491.91 77.714 1491.93 77.6803 1491.95 77.6382C1491.96 77.6129 1491.96 77.5793 1491.97 77.554C1491.98 77.5372 1491.98 77.5203 1491.99 77.5035L1494.74 66.4158L1509.09 78.0676C1509.1 78.076 1509.12 78.0844 1509.13 78.1012C1509.16 78.1181 1509.19 78.1433 1509.21 78.1602C1509.25 78.177 1509.29 78.2023 1509.32 78.2191C1509.35 78.2275 1509.38 78.2444 1509.4 78.2528C1509.45 78.2696 1509.49 78.2865 1509.54 78.2949C1509.56 78.3033 1509.58 78.3033 1509.59 78.3117C1509.6 78.3117 1509.6 78.3117 1509.61 78.3117C1509.68 78.3285 1509.76 78.337 1509.83 78.337H1509.84C1509.91 78.337 1509.98 78.3285 1510.06 78.3117C1510.07 78.3117 1510.09 78.3033 1510.12 78.2949C1510.17 78.2865 1510.22 78.2696 1510.26 78.2528C1510.29 78.2444 1510.31 78.236 1510.34 78.2191C1510.38 78.2023 1510.43 78.177 1510.47 78.1517C1510.49 78.1433 1510.51 78.1265 1510.53 78.1181C1510.59 78.076 1510.64 78.0255 1510.69 77.975C1510.69 77.975 1510.69 77.975 1510.7 77.975C1510.71 77.9665 1510.71 77.9581 1510.72 77.9497C1510.75 77.9076 1510.79 77.8655 1510.82 77.8234C1510.83 77.7982 1510.84 77.7813 1510.85 77.7561C1510.87 77.7224 1510.89 77.6887 1510.91 77.6466C1510.92 77.6214 1510.92 77.5877 1510.93 77.5624C1510.94 77.5456 1510.95 77.5288 1510.95 77.5119L1513.59 66.4411L1528.04 78.0844C1528.06 78.0928 1528.07 78.1013 1528.08 78.1181C1528.11 78.1349 1528.14 78.1602 1528.16 78.177C1528.2 78.1939 1528.24 78.2191 1528.27 78.2275C1528.3 78.236 1528.33 78.2528 1528.35 78.2612C1528.4 78.278 1528.44 78.2949 1528.49 78.3033C1528.51 78.3117 1528.53 78.3117 1528.54 78.3201C1528.55 78.3201 1528.55 78.3201 1528.56 78.3201C1528.63 78.337 1528.71 78.337 1528.78 78.337H1528.79C1528.86 78.337 1528.93 78.3285 1529.01 78.3117C1529.02 78.3117 1529.04 78.3033 1529.06 78.2949C1529.11 78.2865 1529.16 78.2696 1529.21 78.2528C1529.24 78.2444 1529.26 78.236 1529.29 78.2191C1529.33 78.1939 1529.38 78.177 1529.42 78.1433C1529.44 78.1349 1529.46 78.1181 1529.48 78.1097C1529.54 78.0676 1529.59 78.0171 1529.64 77.9666C1529.65 77.9581 1529.65 77.9497 1529.66 77.9413C1529.69 77.8992 1529.73 77.8571 1529.76 77.8066C1529.77 77.7813 1529.78 77.7645 1529.79 77.7392C1529.81 77.7056 1529.83 77.6635 1529.85 77.6298C1529.86 77.6045 1529.87 77.5709 1529.88 77.5456C1529.88 77.5288 1529.89 77.5119 1529.89 77.4867L1532.42 66.4242L1546.99 78.0676C1547.01 78.0844 1547.02 78.0928 1547.04 78.1012C1547.07 78.1181 1547.1 78.1433 1547.12 78.1602C1547.16 78.177 1547.2 78.2023 1547.23 78.2191C1547.26 78.2275 1547.29 78.2444 1547.31 78.2528C1547.36 78.2696 1547.41 78.2865 1547.46 78.2949C1547.48 78.2949 1547.49 78.3033 1547.5 78.3117H1547.51C1547.59 78.3201 1547.65 78.3286 1547.72 78.3286H1547.73C1547.8 78.3286 1547.87 78.3201 1547.95 78.3033C1547.97 78.3033 1547.98 78.2949 1548 78.2865C1548.06 78.278 1548.1 78.2612 1548.16 78.2359C1548.18 78.2275 1548.2 78.2191 1548.23 78.2023C1548.27 78.177 1548.32 78.1602 1548.36 78.1265C1548.38 78.1181 1548.4 78.1013 1548.42 78.0928C1548.48 78.0507 1548.54 78.0002 1548.58 77.9497C1548.59 77.9413 1548.59 77.9329 1548.6 77.9244C1548.64 77.8824 1548.67 77.8403 1548.7 77.7897C1548.72 77.7645 1548.73 77.7477 1548.74 77.7224C1548.75 77.6887 1548.77 77.655 1548.79 77.613C1548.8 77.5877 1548.81 77.554 1548.82 77.5288C1548.83 77.5119 1548.83 77.4867 1548.83 77.4698L1551.24 66.4242L1565.93 78.0676C1565.95 78.0844 1565.97 78.0928 1565.98 78.1012C1566.01 78.1181 1566.04 78.1349 1566.06 78.1517C1566.1 78.1686 1566.14 78.1854 1566.17 78.2023C1566.19 78.2107 1566.21 78.2191 1566.23 78.2275C1566.24 78.2275 1566.25 78.2359 1566.26 78.2359C1566.3 78.2528 1566.34 78.2612 1566.38 78.2696C1566.4 78.278 1566.43 78.2865 1566.45 78.2865C1566.45 78.2865 1566.45 78.2865 1566.45 78.2865H1566.46C1566.53 78.2949 1566.59 78.3033 1566.65 78.3033C1566.66 78.3033 1566.66 78.3033 1566.67 78.3033H1585.62C1586.1 78.3033 1586.53 78.0255 1586.69 77.6045C1586.81 77.192 1586.67 76.7206 1586.31 76.4343ZM1568 76.1817L1570.04 66.4074L1582.46 76.1817H1568Z" fill="#C27B1B"/>
<path d="M1356.56 75.3062H1224.98V78.3033H1356.56V75.3062Z" fill="#C27B1B"/>
<path d="M1334.33 75.3063H1224.98V63.8229H1334.33V75.3063ZM1226.29 74.094H1333.03V65.0352H1226.29V74.094Z" fill="#C27B1B"/>
<path d="M1244.3 64.4291H1242.99V74.7002H1244.3V64.4291Z" fill="#C27B1B"/>
<path d="M1262.3 64.4291H1261V74.7002H1262.3V64.4291Z" fill="#C27B1B"/>
<path d="M1280.31 64.4291H1279.01V74.7002H1280.31V64.4291Z" fill="#C27B1B"/>
<path d="M1298.32 64.4291H1297.02V74.7002H1298.32V64.4291Z" fill="#C27B1B"/>
<path d="M1316.33 64.4291H1315.03V74.7002H1316.33V64.4291Z" fill="#C27B1B"/>
<path d="M1338.33 76.1818L1340.68 47.3976L1346.35 59.0409L1347.51 75.18C1347.55 75.744 1348.05 76.1734 1348.65 76.1734H1355.43C1355.76 76.1734 1356.08 76.0387 1356.3 75.803C1356.51 75.5673 1356.61 75.2557 1356.56 74.9442L1344.43 0.925239C1344.43 0.899982 1344.42 0.87472 1344.42 0.841045C1344.41 0.807369 1344.4 0.76527 1344.39 0.731595C1344.38 0.697919 1344.35 0.664248 1344.34 0.630572C1344.33 0.605315 1344.32 0.571634 1344.3 0.546378C1344.27 0.504283 1344.24 0.470616 1344.22 0.436941C1344.2 0.420103 1344.19 0.39484 1344.17 0.378002C1344.14 0.344327 1344.1 0.310655 1344.06 0.276979C1344.05 0.260142 1344.04 0.25172 1344.02 0.234882C1343.97 0.201207 1343.92 0.17595 1343.87 0.142274C1343.86 0.133855 1343.85 0.125437 1343.84 0.117018C1343.71 0.0580859 1343.57 0.0159873 1343.41 0.00756836C1343.41 0.00756836 1343.41 0.00756836 1343.4 0.00756836C1343.38 0.00756836 1343.35 0.00756836 1343.32 0.00756836C1343.28 0.00756836 1343.23 0.00756836 1343.19 0.00756836H1343.18C1343.15 0.00756836 1343.11 0.0159909 1343.09 0.0244098C1343.04 0.0328287 1343 0.0412465 1342.95 0.0496655C1342.93 0.0580844 1342.91 0.0665022 1342.9 0.0749211C1342.84 0.091759 1342.8 0.108603 1342.75 0.13386C1342.73 0.142279 1342.72 0.150696 1342.71 0.159115C1342.66 0.184372 1342.61 0.218053 1342.57 0.24331C1342.55 0.260147 1342.53 0.276975 1342.52 0.285394C1342.49 0.319069 1342.45 0.344335 1342.42 0.386429C1342.41 0.411686 1342.39 0.428525 1342.38 0.453782C1342.35 0.487458 1342.33 0.521129 1342.31 0.554805C1342.29 0.580062 1342.28 0.605311 1342.27 0.638986C1342.25 0.672662 1342.23 0.706342 1342.23 0.748436C1342.22 0.773693 1342.21 0.807369 1342.21 0.841045C1342.2 0.883139 1342.19 0.916814 1342.19 0.958909C1342.19 0.967328 1342.19 0.975746 1342.18 0.984164L1336.06 76.1482H1338.33V76.1818ZM1349.72 74.0518L1349.03 64.5637L1353.65 74.0518H1349.72ZM1353.05 67.6619L1348.6 58.5105L1347.57 44.2405H1349.22L1353.05 67.6619ZM1348.86 42.1105H1347.4L1346.25 26.2072L1348.86 42.1105ZM1345.91 52.9962L1341.65 44.2405H1345.28L1345.91 52.9962ZM1343.24 15.9867L1345.13 42.1189H1341.11L1343.24 15.9867Z" fill="#C27B1B"/>
<path d="M1569.87 63.3683H1361.64L1349.78 78.3035H1581.73L1569.87 63.3683ZM1380.99 66.3066L1387.85 76.1819H1373.24L1380.99 66.3066ZM1371.05 75.3653L1364.29 65.4983H1378.8L1371.05 75.3653ZM1383.13 65.4899H1397.64L1390 75.3569L1383.13 65.4899ZM1399.82 66.3066L1406.78 76.1819H1392.17L1399.82 66.3066ZM1401.98 65.4899H1416.48L1408.94 75.3569L1401.98 65.4899ZM1418.66 66.3066L1425.72 76.1819H1411.11L1418.66 66.3066ZM1420.82 65.4899H1435.32L1427.87 75.3569L1420.82 65.4899ZM1437.49 66.3066L1444.66 76.1903H1430.04L1437.49 66.3066ZM1439.66 65.4899H1454.16L1446.81 75.3569L1439.66 65.4899ZM1456.34 66.3066L1463.6 76.1903H1448.98L1456.34 66.3066ZM1458.5 65.4899H1473.01L1465.75 75.3653L1458.5 65.4899ZM1475.17 66.3066L1482.52 76.1903H1467.91L1475.17 66.3066ZM1477.34 65.4899H1491.85L1484.69 75.3569L1477.34 65.4899ZM1494.01 66.3066L1501.46 76.1903H1486.85L1494.01 66.3066ZM1496.18 65.4899H1510.69L1503.64 75.3569L1496.18 65.4899ZM1512.84 66.3066L1520.4 76.1819H1505.78L1512.84 66.3066ZM1515.03 65.4899H1529.49L1522.42 75.1632L1515.03 65.4899ZM1531.67 66.2813L1539.34 76.1819H1524.43L1531.67 66.2813ZM1533.87 65.4899H1548.37L1541.51 75.3569L1533.87 65.4899ZM1550.52 66.3066L1558.27 76.1819H1543.66L1550.52 66.3066ZM1552.71 65.4899H1567.22L1560.45 75.3569L1552.71 65.4899ZM1569.36 66.3066L1577.21 76.1819H1562.6L1569.36 66.3066ZM1362.15 66.3066L1368.91 76.1819H1354.3L1362.15 66.3066Z" fill="#FFC338"/>
<path d="M1344.44 1.02649C1344.41 0.487681 1343.94 0.0583227 1343.36 0.033066C1342.77 -0.000609655 1342.27 0.395077 1342.18 0.925468L1329.17 74.9445C1329.12 75.256 1329.21 75.5675 1329.42 75.8116C1329.64 76.0473 1329.96 76.1905 1330.29 76.1905H1348.65C1348.96 76.1905 1349.26 76.0642 1349.48 75.8537C1349.7 75.6348 1349.8 75.3486 1349.79 75.0539L1344.44 1.02649ZM1346.99 67.8894L1337.55 44.2491H1345.28L1346.99 67.8894ZM1342.83 10.3715L1345.12 42.1107H1337.26L1342.83 10.3715ZM1336.34 47.3136L1347.02 74.0521H1331.64L1336.34 47.3136Z" fill="#FFC338"/>
<path d="M1357.94 555.839H1375.57V542.596H1357.94V555.839Z" fill="#788ACC"/>
<path d="M1357.93 542.589H1310.15V555.832H1357.93V542.589Z" fill="white"/>
<path d="M1541.11 77.2424H1522.16V82.942H1541.11V77.2424Z" fill="#788ACC"/>
<path d="M1329.15 75.3062V542.589H1349.79V75.3062H1329.15ZM1331.43 78.3033H1347.5V107.938H1331.43V78.3033ZM1332.87 523.781H1347.51V538.784L1332.87 523.781ZM1347.51 147.675V162.669L1332.87 147.675H1347.51ZM1332.87 145.553L1347.51 130.559V145.553H1332.87ZM1347.51 185.282V200.276L1332.87 185.282H1347.51ZM1332.87 183.161L1347.51 168.167V183.161H1332.87ZM1347.51 222.898V237.892L1332.87 222.898H1347.51ZM1332.87 220.776L1347.51 205.782V220.776H1332.87ZM1347.51 260.505V275.499L1332.87 260.505H1347.51ZM1332.87 258.384L1347.51 243.39V258.384H1332.87ZM1347.51 298.121V313.115L1332.87 298.121H1347.51ZM1332.87 295.999L1347.51 281.005V295.999H1332.87ZM1347.51 335.728V350.722L1332.87 335.728H1347.51ZM1332.87 333.607L1347.51 318.612V333.607H1332.87ZM1347.51 373.344V388.338L1332.87 373.344H1347.51ZM1332.87 371.222L1347.51 356.228V371.222H1332.87ZM1347.51 410.951V425.945L1332.87 410.951H1347.51ZM1332.87 408.829L1347.51 393.835V408.829H1332.87ZM1347.51 448.567V463.561L1332.87 448.567H1347.51ZM1332.87 446.445L1347.51 431.451V446.445H1332.87ZM1347.51 486.174V501.168L1332.87 486.174H1347.51ZM1332.87 484.052L1347.51 469.058V484.052H1332.87ZM1332.87 521.66L1347.51 506.666V521.66H1332.87ZM1332.87 110.068H1347.51V125.062L1332.87 110.068ZM1331.43 111.752L1346.07 126.746H1331.43V111.752ZM1331.43 128.867H1346.07L1331.43 143.861V128.867ZM1331.43 149.359L1346.07 164.353H1331.43V149.359ZM1331.43 166.483H1346.07L1331.43 181.477V166.483ZM1331.43 186.974L1346.07 201.969H1331.43V186.974ZM1331.43 204.09H1346.07L1331.43 219.084V204.09ZM1331.43 224.582L1346.07 239.576H1331.43V224.582ZM1331.43 241.706H1346.07L1331.43 256.7V241.706ZM1331.43 262.197L1346.07 277.192H1331.43V262.197ZM1331.43 279.313H1346.07L1331.43 294.307V279.313ZM1331.43 299.805L1346.07 314.799H1331.43V299.805ZM1331.43 316.92H1346.07L1331.43 331.914V316.92ZM1331.43 337.412L1346.07 352.406H1331.43V337.412ZM1331.43 354.536H1346.07L1331.43 369.53V354.536ZM1331.43 375.028L1346.07 390.022H1331.43V375.028ZM1331.43 392.143H1346.07L1331.43 407.137V392.143ZM1331.43 412.635L1346.07 427.629H1331.43V412.635ZM1331.43 429.759H1346.07L1331.43 444.753V429.759ZM1331.43 450.251L1346.07 465.245H1331.43V450.251ZM1331.43 467.366H1346.07L1331.43 482.36V467.366ZM1331.43 487.858L1346.07 502.852H1331.43V487.858ZM1331.43 504.982H1346.07L1331.43 519.976V504.982ZM1331.43 540.468V525.473L1346.07 540.468H1331.43Z" fill="#FFC338"/>
<path d="M1354.44 203.033H1367.99V193.629H1354.44V203.033Z" fill="#C3D0F2"/>
<path d="M1354.45 193.626H1317.73V203.03H1354.45V193.626Z" fill="white"/>
<path d="M1354.45 201.969H1317.73V204.09H1354.45V201.969Z" fill="#FFC338"/>
<path d="M1367.99 201.969H1354.45V204.09H1367.99V201.969Z" fill="#C27B1B"/>
<path d="M1354.44 127.812H1367.99V118.408H1354.44V127.812Z" fill="#C3D0F2"/>
<path d="M1354.45 118.403H1317.73V127.807H1354.45V118.403Z" fill="white"/>
<path d="M1354.45 126.746H1317.73V128.867H1354.45V126.746Z" fill="#FFC338"/>
<path d="M1367.99 126.746H1354.45V128.867H1367.99V126.746Z" fill="#C27B1B"/>
<path d="M1363.34 99.4614H1370.11V78.3047H1363.34V99.4614Z" fill="#C3D0F2"/>
<path d="M1363.34 99.4599H1370.11L1366.73 110.068H1359.95L1363.34 99.4599Z" fill="#C3D0F2"/>
<path d="M1363.34 99.4605H1370.11V80.8463H1363.34V99.4605Z" fill="#5B5F99"/>
<path d="M1367.53 107.525L1370.11 99.4599H1363.34L1360.76 107.525H1367.53Z" fill="#5B5F99"/>
<path d="M1359.95 110.068H1338.21V78.3033H1363.34V99.46L1359.95 110.068Z" fill="white"/>
<path d="M1360.76 107.525L1363.34 99.46V80.8458H1349.8V107.525H1360.76Z" fill="#788ACC"/>
<defs>
<linearGradient id="paint0_linear_61_1802" x1="1232.78" y1="552.26" x2="1232.78" y2="496.56" gradientUnits="userSpaceOnUse">
<stop stop-color="#D77A00"/>
<stop offset="0.0357" stop-color="#D97F00"/>
<stop offset="0.2807" stop-color="#E69C00"/>
<stop offset="0.5245" stop-color="#F0B000"/>
<stop offset="0.7644" stop-color="#F5BD00"/>
<stop offset="0.996" stop-color="#F7C100"/>
</linearGradient>
<linearGradient id="paint1_linear_61_1802" x1="1137.88" y1="542.937" x2="1137.88" y2="524.454" gradientUnits="userSpaceOnUse">
<stop stop-color="#D77A00"/>
<stop offset="0.9921" stop-color="#B05103"/>
</linearGradient>
<linearGradient id="paint2_linear_61_1802" x1="1276.43" y1="516.033" x2="1282.39" y2="535.414" gradientUnits="userSpaceOnUse">
<stop stop-color="#D77A00"/>
<stop offset="0.9921" stop-color="#B05103"/>
</linearGradient>
<linearGradient id="paint3_linear_61_1802" x1="1176.13" y1="517.144" x2="1176.13" y2="465.437" gradientUnits="userSpaceOnUse">
<stop stop-color="#6A6EAB"/>
<stop offset="0.141" stop-color="#7D85BE"/>
<stop offset="0.3591" stop-color="#94A2D6"/>
<stop offset="0.5762" stop-color="#A5B6E7"/>
<stop offset="0.7899" stop-color="#B0C3F2"/>
<stop offset="0.996" stop-color="#B3C7F5"/>
</linearGradient>
<linearGradient id="paint4_linear_61_1802" x1="1203.89" y1="521.29" x2="1212.21" y2="544.881" gradientUnits="userSpaceOnUse">
<stop stop-color="#D77A00"/>
<stop offset="0.9921" stop-color="#B05103"/>
</linearGradient>
<linearGradient id="paint5_linear_61_1802" x1="1104.66" y1="433.737" x2="1172.01" y2="571.836" gradientUnits="userSpaceOnUse">
<stop stop-color="#D77A00"/>
<stop offset="0.996" stop-color="#F7C100"/>
</linearGradient>
<linearGradient id="paint6_linear_61_1802" x1="1106.68" y1="434.497" x2="1173.72" y2="567.825" gradientUnits="userSpaceOnUse">
<stop stop-color="#F7C100"/>
<stop offset="1" stop-color="#FFE46B"/>
</linearGradient>
<linearGradient id="paint7_linear_61_1802" x1="1201.47" y1="508.503" x2="1154.91" y2="538.183" gradientUnits="userSpaceOnUse">
<stop stop-color="#F7C100"/>
<stop offset="1" stop-color="#FFE46B"/>
</linearGradient>
<linearGradient id="paint8_linear_61_1802" x1="1112.09" y1="433.355" x2="1154.61" y2="520.887" gradientUnits="userSpaceOnUse">
<stop stop-color="#D77A00"/>
<stop offset="0.996" stop-color="#F7C100"/>
</linearGradient>
<linearGradient id="paint9_linear_61_1802" x1="1120.84" y1="434.948" x2="1120.84" y2="464.402" gradientUnits="userSpaceOnUse">
<stop stop-color="#D77A00"/>
<stop offset="0.996" stop-color="#F7C100"/>
</linearGradient>
<linearGradient id="paint10_linear_61_1802" x1="1121.98" y1="433.3" x2="1121.98" y2="463.527" gradientUnits="userSpaceOnUse">
<stop stop-color="#F7C100"/>
<stop offset="1" stop-color="#FFE46B"/>
</linearGradient>
<linearGradient id="paint11_linear_61_1802" x1="1161.48" y1="468.845" x2="1125.91" y2="452.782" gradientUnits="userSpaceOnUse">
<stop stop-color="#F7C100"/>
<stop offset="1" stop-color="#FFE46B"/>
</linearGradient>
<linearGradient id="paint12_linear_61_1802" x1="1138.8" y1="431.821" x2="1210.62" y2="569.34" gradientUnits="userSpaceOnUse">
<stop stop-color="#D77A00"/>
<stop offset="0.996" stop-color="#F7C100"/>
</linearGradient>
<linearGradient id="paint13_linear_61_1802" x1="1143.42" y1="433.739" x2="1210.84" y2="569.697" gradientUnits="userSpaceOnUse">
<stop stop-color="#F7C100"/>
<stop offset="1" stop-color="#FFE46B"/>
</linearGradient>
<linearGradient id="paint14_linear_61_1802" x1="1051.51" y1="399.361" x2="1151.1" y2="399.361" gradientUnits="userSpaceOnUse">
<stop stop-color="#575756"/>
<stop offset="1" stop-color="#706F6F"/>
</linearGradient>
<linearGradient id="paint15_linear_61_1802" x1="1027.11" y1="548.625" x2="941.144" y2="414.874" gradientUnits="userSpaceOnUse">
<stop stop-color="#D77A00"/>
<stop offset="0.0357" stop-color="#D97F00"/>
<stop offset="0.2807" stop-color="#E69C00"/>
<stop offset="0.5245" stop-color="#F0B000"/>
<stop offset="0.7644" stop-color="#F5BD00"/>
<stop offset="0.996" stop-color="#F7C100"/>
</linearGradient>
<linearGradient id="paint16_linear_61_1802" x1="789.341" y1="458.761" x2="816.222" y2="508.835" gradientUnits="userSpaceOnUse">
<stop offset="0.00396825" stop-color="#B3C7F5"/>
<stop offset="0.2101" stop-color="#B0C3F2"/>
<stop offset="0.4238" stop-color="#A5B6E7"/>
<stop offset="0.6409" stop-color="#94A2D6"/>
<stop offset="0.859" stop-color="#7D85BE"/>
<stop offset="1" stop-color="#6A6EAB"/>
</linearGradient>
</defs>
</svg>
