<svg width="1381" height="238" viewBox="0 0 1381 238" fill="none" xmlns="http://www.w3.org/2000/svg">
<g clip-path="url(#clip0_61_15)">
<path d="M90.1485 237.995C44.4871 237.995 0 211.88 0 170.209V165.807H45.0772V170.209C45.0772 183.415 69.9555 192.805 90.1485 192.805C104.488 192.805 120.585 189.255 131.125 178.717L0 79.236V67.7874C0 26.7027 43.0237 0.0249023 90.1485 0.0249023C136.37 0.0249023 180.297 26.4128 180.297 67.7874V72.2071H135.22V67.8051C135.22 54.5994 110.341 45.2098 90.1485 45.2098C76.0984 45.2098 59.4164 49.0259 49.1724 59.2971L180.297 158.761V170.209C180.297 210.998 137.273 237.995 90.1485 237.995Z" fill="black"/>
<path d="M419.396 126.177C419.396 184.597 371.994 232.125 313.723 232.125C255.451 232.125 208.055 184.621 208.055 126.177C208.055 67.7329 255.457 20.2229 313.723 20.2229C371.988 20.2229 419.396 67.7507 419.396 126.177ZM313.723 64.4493C301.546 64.4493 289.643 68.0695 279.519 74.8522C269.395 81.6349 261.504 91.2755 256.845 102.555C252.185 113.834 250.966 126.245 253.341 138.219C255.717 150.193 261.58 161.192 270.19 169.825C278.8 178.458 289.77 184.337 301.712 186.718C313.654 189.1 326.033 187.878 337.282 183.206C348.532 178.534 358.147 170.622 364.912 160.471C371.676 150.32 375.287 138.385 375.287 126.177C375.268 109.811 368.776 94.1217 357.234 82.5496C345.693 70.9775 330.045 64.4681 313.723 64.4493Z" fill="black"/>
<path d="M620.476 186.987V232.148H451.71V17.9685H496.74V186.987H620.476Z" fill="black"/>
<path d="M697.69 19.0811V232.125H652.648V19.0811H697.69Z" fill="black"/>
<path d="M936.477 126.189C936.478 131.418 936.099 136.64 935.344 141.814C931.921 164.904 921.043 186.233 904.376 202.532C887.709 218.832 866.173 229.204 843.066 232.06L842.558 232.125H743.806V96.227H788.854V186.987H839.531C851.831 185.046 863.254 179.407 872.289 170.816C881.324 162.225 887.546 151.086 890.131 138.874C891.839 130.682 891.873 122.229 890.232 114.024C887.538 100.58 880.437 88.4254 870.058 79.4954C859.679 70.5653 846.619 65.373 832.957 64.745H743.806V19.4773L838.221 19.8264C864.955 21.8714 889.932 33.9659 908.152 53.6884C926.371 73.4109 936.488 99.3057 936.477 126.189Z" fill="black"/>
<path d="M1158.02 19.4893V64.6504H968.513V27.9677V19.5011L1158.02 19.4893ZM1013.57 186.987H1158.02V232.149H968.513V195.466V186.999V95.8722L1013.56 96.1503H1139.11V141.317H1013.57V186.987Z" fill="black"/>
<path d="M1381 17.9628V232.143H1335.95V117.136L1312.06 141.093L1302.85 150.305L1300.38 152.79L1292.11 161.043L1286.14 167.019L1255.84 136.626L1235.03 115.776L1189.98 70.6084V17.9509H1201.19L1244.05 60.9111L1286.16 103.15L1371.13 17.9509L1381 17.9628ZM1190.01 115.119L1235.05 160.197V232.125H1190.01V115.119Z" fill="black"/>
</g>
<defs>
<clipPath id="clip0_61_15">
<rect width="1381" height="238" fill="white"/>
</clipPath>
</defs>
</svg>
