<svg width="180" height="31" viewBox="0 0 180 31" fill="none" xmlns="http://www.w3.org/2000/svg">
<g clip-path="url(#clip0_61_893)">
<path d="M11.75 30.9995C5.79846 30.9995 0 27.5978 0 22.1702V21.5968H5.87538V22.1702C5.87538 23.8903 9.11802 25.1133 11.75 25.1133C13.619 25.1133 15.7171 24.6509 17.0908 23.2784L0 10.3207V8.82954C0 3.47817 5.60772 0.00332642 11.75 0.00332642C17.7746 0.00332642 23.5 3.44041 23.5 8.82954V9.40521H17.6246V8.83185C17.6246 7.11176 14.3819 5.88875 11.75 5.88875C9.91868 5.88875 7.74436 6.38582 6.40915 7.72366L23.5 20.679V22.1702C23.5 27.483 17.8922 30.9995 11.75 30.9995Z" fill="white"/>
<path d="M54.6645 16.4348C54.6645 24.0441 48.4861 30.2347 40.891 30.2347C33.2958 30.2347 27.1182 24.0472 27.1182 16.4348C27.1182 8.82235 33.2966 2.63406 40.891 2.63406C48.4853 2.63406 54.6645 8.82466 54.6645 16.4348ZM40.891 8.39464C39.3039 8.39464 37.7525 8.86619 36.4329 9.74965C35.1133 10.6331 34.0848 11.8888 33.4774 13.358C32.8701 14.8271 32.7112 16.4437 33.0208 18.0033C33.3304 19.563 34.0947 20.9956 35.2169 22.12C36.3391 23.2445 37.7689 24.0102 39.3255 24.3204C40.8821 24.6307 42.4955 24.4715 43.9617 23.8629C45.428 23.2544 46.6812 22.2238 47.5629 20.9017C48.4447 19.5795 48.9153 18.025 48.9153 16.4348C48.9128 14.3032 48.0666 12.2595 46.5623 10.7522C45.058 9.24496 43.0184 8.39709 40.891 8.39464Z" fill="white"/>
<path d="M80.8731 24.3555V30.2378H58.876V2.34045H64.7452V24.3555H80.8731Z" fill="white"/>
<path d="M90.9372 2.48532V30.2347H85.0664V2.48532H90.9372Z" fill="white"/>
<path d="M122.061 16.4363C122.061 17.1174 122.011 17.7977 121.913 18.4716C121.467 21.4791 120.049 24.2572 117.877 26.3803C115.704 28.5033 112.897 29.8543 109.885 30.2263L109.819 30.2347H96.9478V12.5338H102.819V24.3555H109.425C111.028 24.1026 112.517 23.3681 113.694 22.2491C114.872 21.1301 115.683 19.6793 116.02 18.0886C116.242 17.0217 116.247 15.9206 116.033 14.8519C115.682 13.1007 114.756 11.5176 113.404 10.3544C112.051 9.19128 110.348 8.51497 108.568 8.43317H96.9478V2.53696L109.254 2.58242C112.738 2.8488 115.994 4.42413 118.369 6.99303C120.743 9.56192 122.062 12.9348 122.061 16.4363Z" fill="white"/>
<path d="M150.936 2.53851V8.42085H126.236V3.64285V2.54006L150.936 2.53851ZM132.109 24.3555H150.936V30.2378H126.236V25.4598V24.357V12.4876L132.107 12.5238H148.473V18.4069H132.109V24.3555Z" fill="white"/>
<path d="M180 2.33968V30.2371H174.128V15.2572L171.014 18.3776L169.814 19.5775L169.491 19.9012L168.415 20.9762L167.636 21.7546L163.686 17.7957L160.974 15.08L155.103 9.19688V2.33813H156.564L162.149 7.93379L167.639 13.4354L178.714 2.33813L180 2.33968ZM155.106 14.9945L160.977 20.866V30.2347H155.106V14.9945Z" fill="white"/>
</g>
<defs>
<clipPath id="clip0_61_893">
<rect width="180" height="31" fill="white"/>
</clipPath>
</defs>
</svg>
