<svg width="390" height="131" viewBox="0 0 390 131" fill="none" xmlns="http://www.w3.org/2000/svg">
<path d="M390 127H0V131H390V127Z" fill="#BD8066"/>
<path d="M338.305 21.6704H335.009C333.271 21.6704 331.768 22.7733 331.062 24.3813C330.953 24.6338 328.219 32.5139 328.219 32.5139L338.314 32.5223V21.6704H338.305Z" fill="#FFE46B"/>
<path d="M338.305 21.6704C336.567 21.6704 335.064 22.7733 334.358 24.3813C334.249 24.6338 331.515 32.5139 331.515 32.5139L342.697 32.5223V26.4523C342.688 23.8088 340.723 21.6704 338.305 21.6704Z" fill="#F7C100"/>
<path d="M338.305 28.7508C339.475 28.7508 340.424 27.718 340.424 26.444C340.424 25.17 339.475 24.1372 338.305 24.1372C337.135 24.1372 336.187 25.17 336.187 26.444C336.187 27.718 337.135 28.7508 338.305 28.7508Z" fill="#E69600"/>
<path d="M269.747 21.6704H266.451C264.712 21.6704 263.209 22.7733 262.503 24.3813C262.395 24.6338 259.66 32.5139 259.66 32.5139L269.756 32.5223V21.6704H269.747Z" fill="#FFE46B"/>
<path d="M269.747 21.6704C268.008 21.6704 266.505 22.7733 265.799 24.3813C265.69 24.6338 262.956 32.5139 262.956 32.5139L274.138 32.5223V26.4523C274.129 23.8088 272.164 21.6704 269.747 21.6704Z" fill="#F7C100"/>
<path d="M269.747 28.7508C270.917 28.7508 271.865 27.718 271.865 26.444C271.865 25.17 270.917 24.1372 269.747 24.1372C268.576 24.1372 267.628 25.17 267.628 26.444C267.628 27.718 268.576 28.7508 269.747 28.7508Z" fill="#E69600"/>
<path d="M82.6038 89.9058C73.1874 89.9058 65.5547 98.2152 65.5547 108.469C65.5547 118.724 73.1874 127.033 82.6038 127.033H92.9166V89.9142H82.6038V89.9058Z" fill="#575756"/>
<path d="M92.9164 127.033C102.332 127.033 109.965 118.722 109.965 108.469C109.965 98.217 102.332 89.9058 92.9164 89.9058C83.5004 89.9058 75.8672 98.217 75.8672 108.469C75.8672 118.722 83.5004 127.033 92.9164 127.033Z" fill="#333332"/>
<path d="M92.9169 118.698C98.1074 118.698 102.315 114.119 102.315 108.469C102.315 102.82 98.1074 98.2402 92.9169 98.2402C87.7263 98.2402 83.5186 102.82 83.5186 108.469C83.5186 114.119 87.7263 118.698 92.9169 118.698Z" fill="#706F6F"/>
<path d="M92.9168 117.174C97.3322 117.174 100.912 113.277 100.912 108.469C100.912 103.662 97.3322 99.7642 92.9168 99.7642C88.5013 99.7642 84.9219 103.662 84.9219 108.469C84.9219 113.277 88.5013 117.174 92.9168 117.174Z" fill="#575756"/>
<path d="M56.5186 113.268H125.086V82.8169H56.5186C54.6081 82.8169 53.0508 84.2565 53.0508 86.0413V110.044C53.0598 111.828 54.6081 113.268 56.5186 113.268Z" fill="#575756"/>
<path d="M128.545 14.8262H59.9951C58.0756 14.8262 56.5273 16.2742 56.5273 18.0506V103.671H128.545V14.8262Z" fill="#EDEDED"/>
<path d="M195.084 7.7373H126.525L143.068 82.8255H211.626L195.084 7.7373Z" fill="#D77A00"/>
<path d="M208.303 32.5138L201.277 0.656738H181.104V7.73701H195.084L211.626 82.8252H219.404H342.687V32.5138H208.303Z" fill="url(#paint0_linear_201_29771)"/>
<path d="M181.105 0.547363H112.546V7.73709H181.105V0.547363Z" fill="#FFE46B"/>
<path d="M242.619 75.6271H217.811L209.906 39.7036H234.706L242.619 75.6271Z" fill="#F7C100"/>
<path d="M275.205 75.6271H250.397L242.483 39.7036H267.292L275.205 75.6271Z" fill="#F7C100"/>
<path d="M307.782 75.6271H282.974L275.069 39.7036H299.878L307.782 75.6271Z" fill="#F7C100"/>
<path d="M334.946 75.6271H315.561L307.656 39.7036H334.946V75.6271Z" fill="#F7C100"/>
<path d="M234.706 39.7036H209.889L210.676 43.2479H231.601L234.706 39.7036Z" fill="#D77A00"/>
<path d="M242.62 75.6271L234.706 39.7036L231.601 43.2479L237.948 72.0911L242.62 75.6271Z" fill="#FFE46B"/>
<path d="M267.292 39.7036H242.475L243.253 43.2479H264.187L267.292 39.7036Z" fill="#D77A00"/>
<path d="M275.206 75.6271L267.292 39.7036L264.187 43.2479L270.534 72.0911L275.206 75.6271Z" fill="#FFE46B"/>
<path d="M299.879 39.7036H275.052L275.839 43.2479H296.764L299.879 39.7036Z" fill="#D77A00"/>
<path d="M307.783 75.6271L299.878 39.7036L296.764 43.2479L303.111 72.0911L307.783 75.6271Z" fill="#FFE46B"/>
<path d="M334.945 39.7036H332.455H307.638L308.416 43.2479H331.133L334.945 39.7036Z" fill="#D77A00"/>
<path d="M334.946 39.7036V75.6271L331.134 72.0911V43.2479L334.946 39.7036Z" fill="#FFE46B"/>
<path d="M122.017 25.4507H59.5879V56.4407H122.017V25.4507Z" fill="url(#paint1_linear_201_29771)"/>
<path d="M122.017 25.4507H59.5879V32.2279H122.017V25.4507Z" fill="#4F5180"/>
<path d="M109.006 79.1547H72.5991C71.4492 79.1547 70.5166 78.2876 70.5166 77.2184V75.3662H111.089V77.2184C111.089 78.2876 110.156 79.1547 109.006 79.1547Z" fill="#706F6F"/>
<path d="M109.006 71.5859H72.5991C71.4492 71.5859 70.5166 70.7187 70.5166 69.6495V67.7974H111.089V69.6495C111.089 70.7187 110.156 71.5859 109.006 71.5859Z" fill="#706F6F"/>
<path d="M239.116 89.9058C229.699 89.9058 222.066 98.2152 222.066 108.469C222.066 118.724 229.699 127.033 239.116 127.033H249.428V89.9142H239.116V89.9058Z" fill="#575756"/>
<path d="M249.438 127.033C258.854 127.033 266.487 118.722 266.487 108.469C266.487 98.217 258.854 89.9058 249.438 89.9058C240.022 89.9058 232.389 98.217 232.389 108.469C232.389 118.722 240.022 127.033 249.438 127.033Z" fill="#333332"/>
<path d="M249.437 118.698C254.628 118.698 258.836 114.119 258.836 108.469C258.836 102.82 254.628 98.2402 249.437 98.2402C244.247 98.2402 240.039 102.82 240.039 108.469C240.039 114.119 244.247 118.698 249.437 118.698Z" fill="#706F6F"/>
<path d="M249.437 117.174C253.853 117.174 257.432 113.277 257.432 108.469C257.432 103.662 253.853 99.7642 249.437 99.7642C245.022 99.7642 241.442 103.662 241.442 108.469C241.442 113.277 245.022 117.174 249.437 117.174Z" fill="#575756"/>
<path d="M200.436 89.9058C191.019 89.9058 183.387 98.2152 183.387 108.469C183.387 118.724 191.019 127.033 200.436 127.033H210.749V89.9142H200.436V89.9058Z" fill="#575756"/>
<path d="M210.748 127.033C220.164 127.033 227.798 118.722 227.798 108.469C227.798 98.217 220.164 89.9058 210.748 89.9058C201.332 89.9058 193.699 98.217 193.699 108.469C193.699 118.722 201.332 127.033 210.748 127.033Z" fill="#333332"/>
<path d="M210.749 118.698C215.939 118.698 220.147 114.119 220.147 108.469C220.147 102.82 215.939 98.2402 210.749 98.2402C205.558 98.2402 201.351 102.82 201.351 108.469C201.351 114.119 205.558 118.698 210.749 118.698Z" fill="#706F6F"/>
<path d="M210.749 117.174C215.164 117.174 218.744 113.277 218.744 108.469C218.744 103.662 215.164 99.7642 210.749 99.7642C206.333 99.7642 202.754 103.662 202.754 108.469C202.754 113.277 206.333 117.174 210.749 117.174Z" fill="#575756"/>
<path d="M327.386 113.268H125.078C123.167 113.268 121.619 111.828 121.619 110.052V82.8252H327.386V113.268Z" fill="#333332"/>
<path d="M151.162 89.9058C141.746 89.9058 134.113 98.2152 134.113 108.469C134.113 118.724 141.746 127.033 151.162 127.033H161.475V89.9142H151.162V89.9058Z" fill="#333332"/>
<path d="M161.475 127.033C170.891 127.033 178.524 118.722 178.524 108.469C178.524 98.217 170.891 89.9058 161.475 89.9058C152.059 89.9058 144.426 98.217 144.426 108.469C144.426 118.722 152.059 127.033 161.475 127.033Z" fill="#575756"/>
<path d="M161.475 118.698C166.666 118.698 170.874 114.119 170.874 108.469C170.874 102.82 166.666 98.2402 161.475 98.2402C156.285 98.2402 152.077 102.82 152.077 108.469C152.077 114.119 156.285 118.698 161.475 118.698Z" fill="#DADADA"/>
<path d="M161.475 117.174C165.891 117.174 169.47 113.277 169.47 108.469C169.47 103.662 165.891 99.7642 161.475 99.7642C157.06 99.7642 153.48 103.662 153.48 108.469C153.48 113.277 157.06 117.174 161.475 117.174Z" fill="#878787"/>
<path d="M164.762 108.469C164.762 112.384 162.39 115.693 159.121 116.787C155.853 115.693 153.48 112.376 153.48 108.469C153.48 104.554 155.853 101.246 159.121 100.151C162.39 101.246 164.762 104.554 164.762 108.469Z" fill="#B2B2B2"/>
<path d="M161.176 108.469C161.176 111.121 159.202 113.268 156.776 113.268C155.907 113.268 155.092 112.99 154.404 112.51C153.815 111.306 153.489 109.934 153.489 108.469C153.489 107.013 153.815 105.632 154.404 104.428C155.092 103.948 155.907 103.67 156.776 103.67C159.202 103.67 161.176 105.826 161.176 108.469Z" fill="#878787"/>
<path d="M195.085 89.9561C197.004 89.9561 198.553 91.4041 198.553 93.1805V100.446C198.553 102.231 196.995 103.67 195.085 103.67H226.195C228.106 103.67 229.654 102.231 229.654 100.454V93.1805C229.654 91.4041 228.106 89.9561 226.186 89.9561H195.085Z" fill="#575756"/>
<path d="M161.548 86.0163H184.537V18.0505C184.537 16.2741 182.989 14.8345 181.078 14.8345H128.546C126.635 14.8345 125.087 16.2741 125.087 18.0505V103.679H141.33C143.349 93.5849 151.598 86.0163 161.476 86.0163C161.503 86.0079 161.521 86.0163 161.548 86.0163Z" fill="#C6C6C6"/>
<path d="M128.146 56.449L164.309 51.667C165.332 51.5323 166.093 50.7157 166.093 49.7559V27.3953C166.093 26.3261 165.16 25.459 164.01 25.459H128.146V56.449Z" fill="#4F5180"/>
<path d="M125.086 82.8252H56.5183C54.6078 82.8252 53.0596 84.2648 53.0596 86.0412V103.67H125.086V82.8252Z" fill="#706F6F"/>
<path d="M118.55 96.9941H107.621V103.67H118.55V96.9941Z" fill="white"/>
<path d="M118.55 89.9058H107.621V93.4501H118.55V89.9058Z" fill="white"/>
<path d="M67.0574 89.9058H56.1289V93.4501H67.0574V89.9058Z" fill="white"/>
<path d="M67.0574 96.9941H56.1289V103.67H67.0574V96.9941Z" fill="white"/>
<path d="M96.013 98.2402H78.665V102.433H96.013V98.2402Z" fill="#B2B2B2"/>
<path d="M320.821 86.3696H331.134L341.311 103.654H330.998L320.821 86.3696Z" fill="#878787"/>
<path d="M307.674 89.9058C298.258 89.9058 290.625 98.2152 290.625 108.469C290.625 118.724 298.258 127.033 307.674 127.033H317.987V89.9142H307.674V89.9058Z" fill="#333332"/>
<path d="M317.987 127.033C327.403 127.033 335.036 118.722 335.036 108.469C335.036 98.217 327.403 89.9058 317.987 89.9058C308.571 89.9058 300.938 98.217 300.938 108.469C300.938 118.722 308.571 127.033 317.987 127.033Z" fill="#575756"/>
<path d="M317.987 118.698C323.178 118.698 327.386 114.119 327.386 108.469C327.386 102.82 323.178 98.2402 317.987 98.2402C312.797 98.2402 308.589 102.82 308.589 108.469C308.589 114.119 312.797 118.698 317.987 118.698Z" fill="#DADADA"/>
<path d="M317.987 117.174C322.403 117.174 325.982 113.277 325.982 108.469C325.982 103.662 322.403 99.7642 317.987 99.7642C313.572 99.7642 309.992 103.662 309.992 108.469C309.992 113.277 313.572 117.174 317.987 117.174Z" fill="#878787"/>
<path d="M321.283 108.469C321.283 112.384 318.91 115.693 315.642 116.787C312.373 115.693 310.001 112.376 310.001 108.469C310.001 104.554 312.373 101.246 315.642 100.151C318.91 101.246 321.283 104.554 321.283 108.469Z" fill="#B2B2B2"/>
<path d="M317.688 108.469C317.688 111.121 315.714 113.268 313.288 113.268C312.418 113.268 311.604 112.99 310.915 112.51C310.327 111.306 310.001 109.934 310.001 108.469C310.001 107.013 310.327 105.632 310.915 104.428C311.604 103.948 312.418 103.67 313.288 103.67C315.714 103.67 317.688 105.826 317.688 108.469Z" fill="#878787"/>
<path d="M268.994 89.9058C259.578 89.9058 251.945 98.2152 251.945 108.469C251.945 118.724 259.578 127.033 268.994 127.033H279.307V89.9142H268.994V89.9058Z" fill="#333332"/>
<path d="M279.307 127.033C288.723 127.033 296.356 118.722 296.356 108.469C296.356 98.217 288.723 89.9058 279.307 89.9058C269.891 89.9058 262.258 98.217 262.258 108.469C262.258 118.722 269.891 127.033 279.307 127.033Z" fill="#575756"/>
<path d="M279.308 118.698C284.498 118.698 288.706 114.119 288.706 108.469C288.706 102.82 284.498 98.2402 279.308 98.2402C274.117 98.2402 269.909 102.82 269.909 108.469C269.909 114.119 274.117 118.698 279.308 118.698Z" fill="#DADADA"/>
<path d="M279.307 117.174C283.723 117.174 287.302 113.277 287.302 108.469C287.302 103.662 283.723 99.7642 279.307 99.7642C274.892 99.7642 271.312 103.662 271.312 108.469C271.312 113.277 274.892 117.174 279.307 117.174Z" fill="#878787"/>
<path d="M282.594 108.469C282.594 112.384 280.222 115.693 276.953 116.787C273.685 115.693 271.312 112.376 271.312 108.469C271.312 104.554 273.685 101.246 276.953 100.151C280.231 101.246 282.594 104.554 282.594 108.469Z" fill="#B2B2B2"/>
<path d="M279.008 108.469C279.008 111.121 277.035 113.268 274.608 113.268C273.739 113.268 272.924 112.99 272.236 112.51C271.647 111.306 271.321 109.934 271.321 108.469C271.321 107.013 271.647 105.632 272.236 104.428C272.924 103.948 273.739 103.67 274.608 103.67C277.035 103.67 279.008 105.826 279.008 108.469Z" fill="#878787"/>
<path d="M333.597 82.8252H329.948H267.356H263.708L254.155 102.812L255.993 103.654L266.17 86.3696H331.135L341.312 103.654L343.15 102.812L333.597 82.8252Z" fill="#B2B2B2"/>
<path d="M253.394 82.8252H263.707L254.155 102.812H243.842L253.394 82.8252Z" fill="#878787"/>
<path d="M245.671 103.654H255.993L254.155 102.812H243.842L245.671 103.654Z" fill="#575756"/>
<path d="M184.537 86.0077V82.8169H125.096C123.176 82.8169 121.619 84.265 121.619 86.0498V103.671H141.33C143.349 93.5679 151.607 86.0077 161.476 86.0077H184.537Z" fill="#575756"/>
<path d="M161.475 75.1387C146.065 75.1387 133.326 87.5398 131.18 103.67H141.23C143.249 93.5172 151.543 85.9066 161.475 85.9066C171.408 85.9066 179.701 93.5172 181.721 103.67H184.527C186.438 103.67 187.995 102.231 187.995 100.446V78.3548C187.995 76.5784 186.447 75.1304 184.527 75.1304H161.475V75.1387Z" fill="#575756"/>
<path d="M53.4492 32.2275H45.4814V49.983H53.4492V32.2275Z" fill="#EDEDED"/>
<path d="M139.175 32.2275H131.207V49.983H139.175V32.2275Z" fill="#EDEDED"/>
<defs>
<linearGradient id="paint0_linear_201_29771" x1="313.549" y1="106.625" x2="227.584" y2="-27.1266" gradientUnits="userSpaceOnUse">
<stop stop-color="#D77A00"/>
<stop offset="0.0357" stop-color="#D97F00"/>
<stop offset="0.2807" stop-color="#E69C00"/>
<stop offset="0.5245" stop-color="#F0B000"/>
<stop offset="0.7644" stop-color="#F5BD00"/>
<stop offset="0.996" stop-color="#F7C100"/>
</linearGradient>
<linearGradient id="paint1_linear_201_29771" x1="75.7812" y1="16.7615" x2="102.663" y2="66.8352" gradientUnits="userSpaceOnUse">
<stop offset="0.00396825" stop-color="#B3C7F5"/>
<stop offset="0.2101" stop-color="#B0C3F2"/>
<stop offset="0.4238" stop-color="#A5B6E7"/>
<stop offset="0.6409" stop-color="#94A2D6"/>
<stop offset="0.859" stop-color="#7D85BE"/>
<stop offset="1" stop-color="#6A6EAB"/>
</linearGradient>
</defs>
</svg>
