<svg width="181" height="238" viewBox="0 0 181 238" fill="none" xmlns="http://www.w3.org/2000/svg">
<path d="M90.1485 237.995C44.4871 237.995 0 211.88 0 170.209V165.807H45.0772V170.209C45.0772 183.415 69.9555 192.805 90.1485 192.805C104.488 192.805 120.585 189.255 131.125 178.717L0 79.236V67.7874C0 26.7027 43.0237 0.0249023 90.1485 0.0249023C136.37 0.0249023 180.297 26.4128 180.297 67.7874V72.2071H135.22V67.8051C135.22 54.5994 110.341 45.2098 90.1485 45.2098C76.0984 45.2098 59.4164 49.0259 49.1724 59.2971L180.297 158.761V170.209C180.297 210.998 137.273 237.995 90.1485 237.995Z" fill="black"/>
</svg>
