<svg width="194" height="214" viewBox="0 0 194 214" fill="none" xmlns="http://www.w3.org/2000/svg">
<path d="M193.477 107.189C193.478 112.418 193.099 117.64 192.344 122.814C188.921 145.904 178.043 167.233 161.376 183.532C144.709 199.832 123.173 210.204 100.066 213.06L99.5582 213.125H0.806152V77.227H45.8538V167.987H96.531C108.831 166.046 120.254 160.407 129.289 151.816C138.324 143.225 144.546 132.086 147.131 119.874C148.839 111.682 148.873 103.229 147.232 95.0241C144.538 81.5799 137.437 69.4254 127.058 60.4954C116.679 51.5653 103.619 46.373 89.9573 45.745H0.806152V0.477295L95.221 0.82637C121.955 2.87144 146.932 14.9659 165.152 34.6884C183.371 54.4109 193.488 80.3057 193.477 107.189Z" fill="black"/>
</svg>
