<svg width="212" height="213" viewBox="0 0 212 213" fill="none" xmlns="http://www.w3.org/2000/svg">
<path d="M211.396 106.177C211.396 164.597 163.994 212.125 105.723 212.125C47.4509 212.125 0.0546875 164.621 0.0546875 106.177C0.0546875 47.7329 47.4568 0.2229 105.723 0.2229C163.988 0.2229 211.396 47.7507 211.396 106.177ZM105.723 44.4493C93.5463 44.4493 81.6435 48.0695 71.5192 54.8522C61.395 61.6349 53.5042 71.2755 48.8445 82.5547C44.1849 93.8339 42.9657 106.245 45.3412 118.219C47.7166 130.193 53.5801 141.192 62.19 149.825C70.7999 158.458 81.7697 164.337 93.712 166.718C105.654 169.1 118.033 167.878 129.282 163.206C140.532 158.534 150.147 150.622 156.912 140.471C163.676 130.32 167.287 118.385 167.287 106.177C167.268 89.8114 160.776 74.1217 149.234 62.5496C137.693 50.9775 122.045 44.4681 105.723 44.4493Z" fill="black"/>
</svg>
