<svg width="264" height="96" viewBox="0 0 264 96" fill="none" xmlns="http://www.w3.org/2000/svg">
<g clip-path="url(#clip0_4205_248)">
<path d="M32.012 47.8461L27.977 57.2436H43.9894C42.2272 64.5769 35.8299 69.9359 28.5388 69.9359C18.5917 69.9359 10.4962 61.8077 10.4962 51.8205C10.4962 41.8333 18.7577 33.9615 28.5388 33.9615C33.174 33.9615 37.5027 35.6666 41.0269 38.8974L41.9718 39.7564L48.9182 32.3333L47.9478 31.4487C42.9806 26.8846 35.715 24.1666 28.5388 24.1666C12.5392 24.1538 0 36.3333 0 51.8718C0 67.4102 12.5392 79.7307 28.5388 79.7307C43.1083 79.7307 54.958 67.2692 54.958 51.9487V47.8461H32.012Z" fill="black"/>
<path d="M92.2436 25.7565V58.8206C92.2436 66.5385 87.353 70.0001 82.5008 70.0001C77.6486 70.0001 72.758 66.5001 72.758 58.8206V25.7565H62.3257V56.8206C62.3257 71.1667 69.8594 79.7436 82.488 79.7436C95.1166 79.7436 102.727 71.3847 102.727 56.8206V25.7565H92.2308H92.2436Z" fill="black"/>
<path d="M183.887 24.1538C167.887 24.1538 155.348 36.3333 155.348 51.8718C155.348 67.4102 167.887 79.7307 183.887 79.7307C199.887 79.7307 212.362 67.2307 212.362 51.8718C212.362 36.5128 199.593 24.1538 183.887 24.1538ZM183.887 69.9359C173.94 69.9359 165.844 61.8333 165.844 51.8846C165.844 41.9359 173.94 33.9615 183.887 33.9615C193.834 33.9615 201.866 42.1666 201.866 51.8846C201.866 61.6025 193.796 69.9359 183.887 69.9359Z" fill="black"/>
<path d="M253.568 25.7565V59.3719L229.677 25.7565H219.742V78.1283H230.175V44.0385L254.462 78.1283H264V25.7565H253.568Z" fill="black"/>
<path d="M108.767 0H96.2275L117.973 39.5897C119.876 43.0513 120.08 47.1282 118.548 50.7692L99.3942 96H111.333L128.661 55.0769C131.534 48.2949 131.151 40.7051 127.601 34.2564L108.767 0Z" fill="url(#paint0_linear_4205_248)"/>
<path d="M128.074 96L167.67 0H155.782L116.186 96H128.074Z" fill="black"/>
<path d="M137.548 20.7564L125.162 0H112.623L130.04 31.7051C133.769 38.7436 133.002 43.1154 133.002 43.1154L136.335 34.9872L138.225 30.5385C139.578 27.359 139.323 23.7308 137.561 20.7692L137.548 20.7564Z" fill="url(#paint1_linear_4205_248)"/>
</g>
<defs>
<linearGradient id="paint0_linear_4205_248" x1="113.542" y1="96.4913" x2="113.542" y2="0" gradientUnits="userSpaceOnUse">
<stop stop-color="#1D1852"/>
<stop offset="1" stop-color="#009BAF"/>
</linearGradient>
<linearGradient id="paint1_linear_4205_248" x1="125.966" y1="43.336" x2="125.966" y2="0" gradientUnits="userSpaceOnUse">
<stop stop-color="#1D1852"/>
<stop offset="1" stop-color="#009BAF"/>
</linearGradient>
<clipPath id="clip0_4205_248">
<rect width="264" height="96" fill="white"/>
</clipPath>
</defs>
</svg>
