<?xml version="1.0" encoding="utf-8"?>
<!-- Generator: Adobe Illustrator 19.0.0, SVG Export Plug-In . SVG Version: 6.00 Build 0)  -->
<svg version="1.1" id="Layer_1" xmlns="http://www.w3.org/2000/svg" xmlns:xlink="http://www.w3.org/1999/xlink" x="0px" y="0px"
	 viewBox="215 349 509 225" style="enable-background:new 215 349 509 225;" xml:space="preserve">
<style type="text/css">
	.st0{fill:#2B338D;}
	.st1{fill:#608DC9;}
	.st2{fill:none;}
	.st3{fill:#FFFFFF;}
</style>
<g id="XMLID_61_">
	<g id="XMLID_100_">
		<polygon id="XMLID_104_" class="st0" points="362.1,449 310.3,449 223,535.6 223,563.4 362.6,563.4 362.6,527.9 281.2,527.9 		"/>
		<polygon id="XMLID_101_" class="st0" points="361.4,404.5 361.4,404.4 223.1,404.4 223.1,439.9 362.9,439.7 362.9,404.5 		"/>
	</g>
	<polygon id="XMLID_99_" class="st1" points="612.1,442.9 493.9,442.9 493.9,404.4 640.2,404.4 	"/>
	<path id="XMLID_98_" class="st1" d="M540,442.5v-38.1h-46.1v0.1v35.2v47.7c0,13.2-2.8,22.9-8.4,29.1c-5.5,6-13.1,9.1-22.9,9.3
		c-9.8-0.2-17.5-3.3-22.9-9.3c-5.6-6.2-8.4-15.9-8.4-29.1v-47.7v-35.2v-0.1h-46.1v38.1l0,0v51.7c0,16.4,2.9,29.8,8.6,40.3
		s13.7,18.4,24.1,23.5c10.3,5.1,22.1,7.5,35.3,7.7c1.6,0,5.6,0.1,9.5,0.1s7.8-0.1,9.5-0.1c13.2-0.2,25-2.6,35.3-7.7
		s18.4-13,24.1-23.5c5.7-10.5,8.6-24,8.6-40.3L540,442.5L540,442.5z"/>
	<path id="XMLID_78_" class="st2" d="M595,485.7C595,485.7,595,485.8,595,485.7L595,485.7L595,485.7z"/>
	<path id="XMLID_76_" class="st2" d="M637.5,442.9L637.5,442.9L637.5,442.9L637.5,442.9z"/>
	<path id="XMLID_75_" class="st1" d="M695.5,428c-15.6-15.6-34.8-23.7-57.1-23.7c-14.7,0-28.2,3.7-40,10.9c-1.1,0.7-2.2,1.4-3.3,2.1
		v-12.9h-38.9v38.5H605l0,0h32.5l0,0l0,0h1.6l0,0c11.3,0.4,20.7,4.4,28.6,12.4c8.3,8.4,12.3,18.3,12.3,30.4s-4,22-12.3,30.4
		c-8.3,8.3-18.1,12.4-30.2,12.4c-12,0-21.9-4.1-30.2-12.4l0,0c-8-8-12-17.6-12.3-29l0,0v-1.3c0,0,0,0,0-0.1s0,0,0-0.1V450h-38.9v114
		H595v-10c1.1,0.7,2.2,1.4,3.3,2.1c11.8,7.1,25.3,10.7,40,10.7c22.3,0,41.5-7.9,57.1-23.5c15.6-15.6,23.5-35,23.5-57.7
		C719,463.1,711.1,443.7,695.5,428z"/>
	<rect id="XMLID_73_" x="556.1" y="355.1" class="st1" width="38.9" height="42.3"/>
	<path id="XMLID_72_" class="st3" d="M595,487.1L595,487.1c0-0.4,0-0.9,0-1.3V487.1z"/>
	<path id="XMLID_64_" class="st3" d="M639.2,442.9h-1.6C638.1,442.9,638.6,443,639.2,442.9L639.2,442.9z"/>
</g>
</svg>
